%TF.GenerationSoftware,KiCad,Pcbnew,(5.1.9)-1*%
%TF.CreationDate,2021-11-10T23:35:07-06:00*%
%TF.ProjectId,CC_BT_PANELIZED,43435f42-545f-4504-914e-454c495a4544,000*%
%TF.SameCoordinates,Original*%
%TF.FileFunction,Legend,Top*%
%TF.FilePolarity,Positive*%
%FSLAX46Y46*%
G04 Gerber Fmt 4.6, Leading zero omitted, Abs format (unit mm)*
G04 Created by KiCad (PCBNEW (5.1.9)-1) date 2021-11-10 23:35:07*
%MOMM*%
%LPD*%
G01*
G04 APERTURE LIST*
%ADD10C,0.100000*%
%ADD11C,0.150000*%
%ADD12C,0.120000*%
%ADD13C,0.250000*%
%ADD14C,0.152400*%
%ADD15C,0.200000*%
%ADD16C,0.300000*%
%ADD17C,0.127000*%
G04 APERTURE END LIST*
D10*
G36*
X108410000Y-80530000D02*
G01*
X108840000Y-80330000D01*
X108840000Y-80960000D01*
X108400000Y-80800000D01*
X107950000Y-80970000D01*
X107950000Y-80300000D01*
X108410000Y-80530000D01*
G37*
X108410000Y-80530000D02*
X108840000Y-80330000D01*
X108840000Y-80960000D01*
X108400000Y-80800000D01*
X107950000Y-80970000D01*
X107950000Y-80300000D01*
X108410000Y-80530000D01*
G36*
X73910000Y-80530000D02*
G01*
X74340000Y-80330000D01*
X74340000Y-80960000D01*
X73900000Y-80800000D01*
X73450000Y-80970000D01*
X73450000Y-80300000D01*
X73910000Y-80530000D01*
G37*
X73910000Y-80530000D02*
X74340000Y-80330000D01*
X74340000Y-80960000D01*
X73900000Y-80800000D01*
X73450000Y-80970000D01*
X73450000Y-80300000D01*
X73910000Y-80530000D01*
G36*
X108410000Y-63780000D02*
G01*
X108840000Y-63580000D01*
X108840000Y-64210000D01*
X108400000Y-64050000D01*
X107950000Y-64220000D01*
X107950000Y-63550000D01*
X108410000Y-63780000D01*
G37*
X108410000Y-63780000D02*
X108840000Y-63580000D01*
X108840000Y-64210000D01*
X108400000Y-64050000D01*
X107950000Y-64220000D01*
X107950000Y-63550000D01*
X108410000Y-63780000D01*
G36*
X73910000Y-63780000D02*
G01*
X74340000Y-63580000D01*
X74340000Y-64210000D01*
X73900000Y-64050000D01*
X73450000Y-64220000D01*
X73450000Y-63550000D01*
X73910000Y-63780000D01*
G37*
X73910000Y-63780000D02*
X74340000Y-63580000D01*
X74340000Y-64210000D01*
X73900000Y-64050000D01*
X73450000Y-64220000D01*
X73450000Y-63550000D01*
X73910000Y-63780000D01*
G36*
X108410000Y-47030000D02*
G01*
X108840000Y-46830000D01*
X108840000Y-47460000D01*
X108400000Y-47300000D01*
X107950000Y-47470000D01*
X107950000Y-46800000D01*
X108410000Y-47030000D01*
G37*
X108410000Y-47030000D02*
X108840000Y-46830000D01*
X108840000Y-47460000D01*
X108400000Y-47300000D01*
X107950000Y-47470000D01*
X107950000Y-46800000D01*
X108410000Y-47030000D01*
G36*
X110040000Y-81960000D02*
G01*
X108820000Y-81960000D01*
X108820000Y-80550000D01*
X110040000Y-80550000D01*
X110040000Y-81960000D01*
G37*
X110040000Y-81960000D02*
X108820000Y-81960000D01*
X108820000Y-80550000D01*
X110040000Y-80550000D01*
X110040000Y-81960000D01*
G36*
X75540000Y-81960000D02*
G01*
X74320000Y-81960000D01*
X74320000Y-80550000D01*
X75540000Y-80550000D01*
X75540000Y-81960000D01*
G37*
X75540000Y-81960000D02*
X74320000Y-81960000D01*
X74320000Y-80550000D01*
X75540000Y-80550000D01*
X75540000Y-81960000D01*
G36*
X110040000Y-65210000D02*
G01*
X108820000Y-65210000D01*
X108820000Y-63800000D01*
X110040000Y-63800000D01*
X110040000Y-65210000D01*
G37*
X110040000Y-65210000D02*
X108820000Y-65210000D01*
X108820000Y-63800000D01*
X110040000Y-63800000D01*
X110040000Y-65210000D01*
G36*
X75540000Y-65210000D02*
G01*
X74320000Y-65210000D01*
X74320000Y-63800000D01*
X75540000Y-63800000D01*
X75540000Y-65210000D01*
G37*
X75540000Y-65210000D02*
X74320000Y-65210000D01*
X74320000Y-63800000D01*
X75540000Y-63800000D01*
X75540000Y-65210000D01*
G36*
X110040000Y-48460000D02*
G01*
X108820000Y-48460000D01*
X108820000Y-47050000D01*
X110040000Y-47050000D01*
X110040000Y-48460000D01*
G37*
X110040000Y-48460000D02*
X108820000Y-48460000D01*
X108820000Y-47050000D01*
X110040000Y-47050000D01*
X110040000Y-48460000D01*
D11*
X108830000Y-82460000D02*
G75*
G03*
X108830000Y-82460000I-430000J0D01*
G01*
X74330000Y-82460000D02*
G75*
G03*
X74330000Y-82460000I-430000J0D01*
G01*
X108830000Y-65710000D02*
G75*
G03*
X108830000Y-65710000I-430000J0D01*
G01*
X74330000Y-65710000D02*
G75*
G03*
X74330000Y-65710000I-430000J0D01*
G01*
X108830000Y-48960000D02*
G75*
G03*
X108830000Y-48960000I-430000J0D01*
G01*
X108830000Y-80060000D02*
G75*
G03*
X108830000Y-80060000I-430000J0D01*
G01*
X74330000Y-80060000D02*
G75*
G03*
X74330000Y-80060000I-430000J0D01*
G01*
X108830000Y-63310000D02*
G75*
G03*
X108830000Y-63310000I-430000J0D01*
G01*
X74330000Y-63310000D02*
G75*
G03*
X74330000Y-63310000I-430000J0D01*
G01*
X108830000Y-46560000D02*
G75*
G03*
X108830000Y-46560000I-430000J0D01*
G01*
D10*
G36*
X111540000Y-83640000D02*
G01*
X109750000Y-83640000D01*
X109780000Y-77730000D01*
X111510000Y-77730000D01*
X111540000Y-83640000D01*
G37*
X111540000Y-83640000D02*
X109750000Y-83640000D01*
X109780000Y-77730000D01*
X111510000Y-77730000D01*
X111540000Y-83640000D01*
G36*
X77040000Y-83640000D02*
G01*
X75250000Y-83640000D01*
X75280000Y-77730000D01*
X77010000Y-77730000D01*
X77040000Y-83640000D01*
G37*
X77040000Y-83640000D02*
X75250000Y-83640000D01*
X75280000Y-77730000D01*
X77010000Y-77730000D01*
X77040000Y-83640000D01*
G36*
X111540000Y-66890000D02*
G01*
X109750000Y-66890000D01*
X109780000Y-60980000D01*
X111510000Y-60980000D01*
X111540000Y-66890000D01*
G37*
X111540000Y-66890000D02*
X109750000Y-66890000D01*
X109780000Y-60980000D01*
X111510000Y-60980000D01*
X111540000Y-66890000D01*
G36*
X77040000Y-66890000D02*
G01*
X75250000Y-66890000D01*
X75280000Y-60980000D01*
X77010000Y-60980000D01*
X77040000Y-66890000D01*
G37*
X77040000Y-66890000D02*
X75250000Y-66890000D01*
X75280000Y-60980000D01*
X77010000Y-60980000D01*
X77040000Y-66890000D01*
G36*
X111540000Y-50140000D02*
G01*
X109750000Y-50140000D01*
X109780000Y-44230000D01*
X111510000Y-44230000D01*
X111540000Y-50140000D01*
G37*
X111540000Y-50140000D02*
X109750000Y-50140000D01*
X109780000Y-44230000D01*
X111510000Y-44230000D01*
X111540000Y-50140000D01*
G36*
X107950000Y-83640000D02*
G01*
X106970000Y-83640000D01*
X106970000Y-77730000D01*
X107940000Y-77730000D01*
X107950000Y-83640000D01*
G37*
X107950000Y-83640000D02*
X106970000Y-83640000D01*
X106970000Y-77730000D01*
X107940000Y-77730000D01*
X107950000Y-83640000D01*
G36*
X73450000Y-83640000D02*
G01*
X72470000Y-83640000D01*
X72470000Y-77730000D01*
X73440000Y-77730000D01*
X73450000Y-83640000D01*
G37*
X73450000Y-83640000D02*
X72470000Y-83640000D01*
X72470000Y-77730000D01*
X73440000Y-77730000D01*
X73450000Y-83640000D01*
G36*
X107950000Y-66890000D02*
G01*
X106970000Y-66890000D01*
X106970000Y-60980000D01*
X107940000Y-60980000D01*
X107950000Y-66890000D01*
G37*
X107950000Y-66890000D02*
X106970000Y-66890000D01*
X106970000Y-60980000D01*
X107940000Y-60980000D01*
X107950000Y-66890000D01*
G36*
X73450000Y-66890000D02*
G01*
X72470000Y-66890000D01*
X72470000Y-60980000D01*
X73440000Y-60980000D01*
X73450000Y-66890000D01*
G37*
X73450000Y-66890000D02*
X72470000Y-66890000D01*
X72470000Y-60980000D01*
X73440000Y-60980000D01*
X73450000Y-66890000D01*
G36*
X107950000Y-50140000D02*
G01*
X106970000Y-50140000D01*
X106970000Y-44230000D01*
X107940000Y-44230000D01*
X107950000Y-50140000D01*
G37*
X107950000Y-50140000D02*
X106970000Y-50140000D01*
X106970000Y-44230000D01*
X107940000Y-44230000D01*
X107950000Y-50140000D01*
G36*
X109031250Y-78420000D02*
G01*
X108797402Y-78490000D01*
X108668750Y-78440000D01*
X107930000Y-78440000D01*
X107930000Y-77730000D01*
X109030000Y-77730000D01*
X109031250Y-78420000D01*
G37*
X109031250Y-78420000D02*
X108797402Y-78490000D01*
X108668750Y-78440000D01*
X107930000Y-78440000D01*
X107930000Y-77730000D01*
X109030000Y-77730000D01*
X109031250Y-78420000D01*
G36*
X74531250Y-78420000D02*
G01*
X74297402Y-78490000D01*
X74168750Y-78440000D01*
X73430000Y-78440000D01*
X73430000Y-77730000D01*
X74530000Y-77730000D01*
X74531250Y-78420000D01*
G37*
X74531250Y-78420000D02*
X74297402Y-78490000D01*
X74168750Y-78440000D01*
X73430000Y-78440000D01*
X73430000Y-77730000D01*
X74530000Y-77730000D01*
X74531250Y-78420000D01*
G36*
X109031250Y-61670000D02*
G01*
X108797402Y-61740000D01*
X108668750Y-61690000D01*
X107930000Y-61690000D01*
X107930000Y-60980000D01*
X109030000Y-60980000D01*
X109031250Y-61670000D01*
G37*
X109031250Y-61670000D02*
X108797402Y-61740000D01*
X108668750Y-61690000D01*
X107930000Y-61690000D01*
X107930000Y-60980000D01*
X109030000Y-60980000D01*
X109031250Y-61670000D01*
G36*
X74531250Y-61670000D02*
G01*
X74297402Y-61740000D01*
X74168750Y-61690000D01*
X73430000Y-61690000D01*
X73430000Y-60980000D01*
X74530000Y-60980000D01*
X74531250Y-61670000D01*
G37*
X74531250Y-61670000D02*
X74297402Y-61740000D01*
X74168750Y-61690000D01*
X73430000Y-61690000D01*
X73430000Y-60980000D01*
X74530000Y-60980000D01*
X74531250Y-61670000D01*
G36*
X109031250Y-44920000D02*
G01*
X108797402Y-44990000D01*
X108668750Y-44940000D01*
X107930000Y-44940000D01*
X107930000Y-44230000D01*
X109030000Y-44230000D01*
X109031250Y-44920000D01*
G37*
X109031250Y-44920000D02*
X108797402Y-44990000D01*
X108668750Y-44940000D01*
X107930000Y-44940000D01*
X107930000Y-44230000D01*
X109030000Y-44230000D01*
X109031250Y-44920000D01*
D11*
X108830000Y-78860000D02*
G75*
G03*
X108830000Y-78860000I-430000J0D01*
G01*
X74330000Y-78860000D02*
G75*
G03*
X74330000Y-78860000I-430000J0D01*
G01*
X108830000Y-62110000D02*
G75*
G03*
X108830000Y-62110000I-430000J0D01*
G01*
X74330000Y-62110000D02*
G75*
G03*
X74330000Y-62110000I-430000J0D01*
G01*
X108830000Y-45360000D02*
G75*
G03*
X108830000Y-45360000I-430000J0D01*
G01*
X108830000Y-81260000D02*
G75*
G03*
X108830000Y-81260000I-430000J0D01*
G01*
X74330000Y-81260000D02*
G75*
G03*
X74330000Y-81260000I-430000J0D01*
G01*
X108830000Y-64510000D02*
G75*
G03*
X108830000Y-64510000I-430000J0D01*
G01*
X74330000Y-64510000D02*
G75*
G03*
X74330000Y-64510000I-430000J0D01*
G01*
X108830000Y-47760000D02*
G75*
G03*
X108830000Y-47760000I-430000J0D01*
G01*
D10*
G36*
X109150000Y-78650000D02*
G01*
X109165000Y-79095000D01*
X109495000Y-79325000D01*
X109860000Y-79240000D01*
X110080000Y-79060000D01*
X110080000Y-80710000D01*
X109690000Y-80760000D01*
X108850000Y-80760000D01*
X108830000Y-78640000D01*
X109150000Y-78650000D01*
G37*
X109150000Y-78650000D02*
X109165000Y-79095000D01*
X109495000Y-79325000D01*
X109860000Y-79240000D01*
X110080000Y-79060000D01*
X110080000Y-80710000D01*
X109690000Y-80760000D01*
X108850000Y-80760000D01*
X108830000Y-78640000D01*
X109150000Y-78650000D01*
G36*
X74650000Y-78650000D02*
G01*
X74665000Y-79095000D01*
X74995000Y-79325000D01*
X75360000Y-79240000D01*
X75580000Y-79060000D01*
X75580000Y-80710000D01*
X75190000Y-80760000D01*
X74350000Y-80760000D01*
X74330000Y-78640000D01*
X74650000Y-78650000D01*
G37*
X74650000Y-78650000D02*
X74665000Y-79095000D01*
X74995000Y-79325000D01*
X75360000Y-79240000D01*
X75580000Y-79060000D01*
X75580000Y-80710000D01*
X75190000Y-80760000D01*
X74350000Y-80760000D01*
X74330000Y-78640000D01*
X74650000Y-78650000D01*
G36*
X109150000Y-61900000D02*
G01*
X109165000Y-62345000D01*
X109495000Y-62575000D01*
X109860000Y-62490000D01*
X110080000Y-62310000D01*
X110080000Y-63960000D01*
X109690000Y-64010000D01*
X108850000Y-64010000D01*
X108830000Y-61890000D01*
X109150000Y-61900000D01*
G37*
X109150000Y-61900000D02*
X109165000Y-62345000D01*
X109495000Y-62575000D01*
X109860000Y-62490000D01*
X110080000Y-62310000D01*
X110080000Y-63960000D01*
X109690000Y-64010000D01*
X108850000Y-64010000D01*
X108830000Y-61890000D01*
X109150000Y-61900000D01*
G36*
X74650000Y-61900000D02*
G01*
X74665000Y-62345000D01*
X74995000Y-62575000D01*
X75360000Y-62490000D01*
X75580000Y-62310000D01*
X75580000Y-63960000D01*
X75190000Y-64010000D01*
X74350000Y-64010000D01*
X74330000Y-61890000D01*
X74650000Y-61900000D01*
G37*
X74650000Y-61900000D02*
X74665000Y-62345000D01*
X74995000Y-62575000D01*
X75360000Y-62490000D01*
X75580000Y-62310000D01*
X75580000Y-63960000D01*
X75190000Y-64010000D01*
X74350000Y-64010000D01*
X74330000Y-61890000D01*
X74650000Y-61900000D01*
G36*
X109150000Y-45150000D02*
G01*
X109165000Y-45595000D01*
X109495000Y-45825000D01*
X109860000Y-45740000D01*
X110080000Y-45560000D01*
X110080000Y-47210000D01*
X109690000Y-47260000D01*
X108850000Y-47260000D01*
X108830000Y-45140000D01*
X109150000Y-45150000D01*
G37*
X109150000Y-45150000D02*
X109165000Y-45595000D01*
X109495000Y-45825000D01*
X109860000Y-45740000D01*
X110080000Y-45560000D01*
X110080000Y-47210000D01*
X109690000Y-47260000D01*
X108850000Y-47260000D01*
X108830000Y-45140000D01*
X109150000Y-45150000D01*
G36*
X108210000Y-82900000D02*
G01*
X108340000Y-83030000D01*
X107860000Y-82970000D01*
X107930000Y-82640000D01*
X108210000Y-82900000D01*
G37*
X108210000Y-82900000D02*
X108340000Y-83030000D01*
X107860000Y-82970000D01*
X107930000Y-82640000D01*
X108210000Y-82900000D01*
G36*
X73710000Y-82900000D02*
G01*
X73840000Y-83030000D01*
X73360000Y-82970000D01*
X73430000Y-82640000D01*
X73710000Y-82900000D01*
G37*
X73710000Y-82900000D02*
X73840000Y-83030000D01*
X73360000Y-82970000D01*
X73430000Y-82640000D01*
X73710000Y-82900000D01*
G36*
X108210000Y-66150000D02*
G01*
X108340000Y-66280000D01*
X107860000Y-66220000D01*
X107930000Y-65890000D01*
X108210000Y-66150000D01*
G37*
X108210000Y-66150000D02*
X108340000Y-66280000D01*
X107860000Y-66220000D01*
X107930000Y-65890000D01*
X108210000Y-66150000D01*
G36*
X73710000Y-66150000D02*
G01*
X73840000Y-66280000D01*
X73360000Y-66220000D01*
X73430000Y-65890000D01*
X73710000Y-66150000D01*
G37*
X73710000Y-66150000D02*
X73840000Y-66280000D01*
X73360000Y-66220000D01*
X73430000Y-65890000D01*
X73710000Y-66150000D01*
G36*
X108210000Y-49400000D02*
G01*
X108340000Y-49530000D01*
X107860000Y-49470000D01*
X107930000Y-49140000D01*
X108210000Y-49400000D01*
G37*
X108210000Y-49400000D02*
X108340000Y-49530000D01*
X107860000Y-49470000D01*
X107930000Y-49140000D01*
X108210000Y-49400000D01*
G36*
X108110000Y-78420000D02*
G01*
X107980000Y-78620000D01*
X107940000Y-78410000D01*
X108110000Y-78420000D01*
G37*
X108110000Y-78420000D02*
X107980000Y-78620000D01*
X107940000Y-78410000D01*
X108110000Y-78420000D01*
G36*
X73610000Y-78420000D02*
G01*
X73480000Y-78620000D01*
X73440000Y-78410000D01*
X73610000Y-78420000D01*
G37*
X73610000Y-78420000D02*
X73480000Y-78620000D01*
X73440000Y-78410000D01*
X73610000Y-78420000D01*
G36*
X108110000Y-61670000D02*
G01*
X107980000Y-61870000D01*
X107940000Y-61660000D01*
X108110000Y-61670000D01*
G37*
X108110000Y-61670000D02*
X107980000Y-61870000D01*
X107940000Y-61660000D01*
X108110000Y-61670000D01*
G36*
X73610000Y-61670000D02*
G01*
X73480000Y-61870000D01*
X73440000Y-61660000D01*
X73610000Y-61670000D01*
G37*
X73610000Y-61670000D02*
X73480000Y-61870000D01*
X73440000Y-61660000D01*
X73610000Y-61670000D01*
G36*
X108110000Y-44920000D02*
G01*
X107980000Y-45120000D01*
X107940000Y-44910000D01*
X108110000Y-44920000D01*
G37*
X108110000Y-44920000D02*
X107980000Y-45120000D01*
X107940000Y-44910000D01*
X108110000Y-44920000D01*
G36*
X110120000Y-78710000D02*
G01*
X110120000Y-79260000D01*
X109590000Y-79290000D01*
X109260000Y-79280000D01*
X108900000Y-78870000D01*
X108700000Y-78500000D01*
X108695000Y-77730000D01*
X110165000Y-77730000D01*
X110120000Y-78710000D01*
G37*
X110120000Y-78710000D02*
X110120000Y-79260000D01*
X109590000Y-79290000D01*
X109260000Y-79280000D01*
X108900000Y-78870000D01*
X108700000Y-78500000D01*
X108695000Y-77730000D01*
X110165000Y-77730000D01*
X110120000Y-78710000D01*
G36*
X75620000Y-78710000D02*
G01*
X75620000Y-79260000D01*
X75090000Y-79290000D01*
X74760000Y-79280000D01*
X74400000Y-78870000D01*
X74200000Y-78500000D01*
X74195000Y-77730000D01*
X75665000Y-77730000D01*
X75620000Y-78710000D01*
G37*
X75620000Y-78710000D02*
X75620000Y-79260000D01*
X75090000Y-79290000D01*
X74760000Y-79280000D01*
X74400000Y-78870000D01*
X74200000Y-78500000D01*
X74195000Y-77730000D01*
X75665000Y-77730000D01*
X75620000Y-78710000D01*
G36*
X110120000Y-61960000D02*
G01*
X110120000Y-62510000D01*
X109590000Y-62540000D01*
X109260000Y-62530000D01*
X108900000Y-62120000D01*
X108700000Y-61750000D01*
X108695000Y-60980000D01*
X110165000Y-60980000D01*
X110120000Y-61960000D01*
G37*
X110120000Y-61960000D02*
X110120000Y-62510000D01*
X109590000Y-62540000D01*
X109260000Y-62530000D01*
X108900000Y-62120000D01*
X108700000Y-61750000D01*
X108695000Y-60980000D01*
X110165000Y-60980000D01*
X110120000Y-61960000D01*
G36*
X75620000Y-61960000D02*
G01*
X75620000Y-62510000D01*
X75090000Y-62540000D01*
X74760000Y-62530000D01*
X74400000Y-62120000D01*
X74200000Y-61750000D01*
X74195000Y-60980000D01*
X75665000Y-60980000D01*
X75620000Y-61960000D01*
G37*
X75620000Y-61960000D02*
X75620000Y-62510000D01*
X75090000Y-62540000D01*
X74760000Y-62530000D01*
X74400000Y-62120000D01*
X74200000Y-61750000D01*
X74195000Y-60980000D01*
X75665000Y-60980000D01*
X75620000Y-61960000D01*
G36*
X110120000Y-45210000D02*
G01*
X110120000Y-45760000D01*
X109590000Y-45790000D01*
X109260000Y-45780000D01*
X108900000Y-45370000D01*
X108700000Y-45000000D01*
X108695000Y-44230000D01*
X110165000Y-44230000D01*
X110120000Y-45210000D01*
G37*
X110120000Y-45210000D02*
X110120000Y-45760000D01*
X109590000Y-45790000D01*
X109260000Y-45780000D01*
X108900000Y-45370000D01*
X108700000Y-45000000D01*
X108695000Y-44230000D01*
X110165000Y-44230000D01*
X110120000Y-45210000D01*
G36*
X112520000Y-83640000D02*
G01*
X111440000Y-83640000D01*
X111420000Y-81400000D01*
X111850000Y-81670000D01*
X112180000Y-81680000D01*
X112420000Y-81410000D01*
X112380000Y-81020000D01*
X112125000Y-80755000D01*
X111775000Y-80825000D01*
X111450000Y-81040000D01*
X111450000Y-80240000D01*
X111680000Y-80520000D01*
X112330000Y-80470000D01*
X112520000Y-79930000D01*
X112520000Y-83640000D01*
G37*
X112520000Y-83640000D02*
X111440000Y-83640000D01*
X111420000Y-81400000D01*
X111850000Y-81670000D01*
X112180000Y-81680000D01*
X112420000Y-81410000D01*
X112380000Y-81020000D01*
X112125000Y-80755000D01*
X111775000Y-80825000D01*
X111450000Y-81040000D01*
X111450000Y-80240000D01*
X111680000Y-80520000D01*
X112330000Y-80470000D01*
X112520000Y-79930000D01*
X112520000Y-83640000D01*
G36*
X78020000Y-83640000D02*
G01*
X76940000Y-83640000D01*
X76920000Y-81400000D01*
X77350000Y-81670000D01*
X77680000Y-81680000D01*
X77920000Y-81410000D01*
X77880000Y-81020000D01*
X77625000Y-80755000D01*
X77275000Y-80825000D01*
X76950000Y-81040000D01*
X76950000Y-80240000D01*
X77180000Y-80520000D01*
X77830000Y-80470000D01*
X78020000Y-79930000D01*
X78020000Y-83640000D01*
G37*
X78020000Y-83640000D02*
X76940000Y-83640000D01*
X76920000Y-81400000D01*
X77350000Y-81670000D01*
X77680000Y-81680000D01*
X77920000Y-81410000D01*
X77880000Y-81020000D01*
X77625000Y-80755000D01*
X77275000Y-80825000D01*
X76950000Y-81040000D01*
X76950000Y-80240000D01*
X77180000Y-80520000D01*
X77830000Y-80470000D01*
X78020000Y-79930000D01*
X78020000Y-83640000D01*
G36*
X112520000Y-66890000D02*
G01*
X111440000Y-66890000D01*
X111420000Y-64650000D01*
X111850000Y-64920000D01*
X112180000Y-64930000D01*
X112420000Y-64660000D01*
X112380000Y-64270000D01*
X112125000Y-64005000D01*
X111775000Y-64075000D01*
X111450000Y-64290000D01*
X111450000Y-63490000D01*
X111680000Y-63770000D01*
X112330000Y-63720000D01*
X112520000Y-63180000D01*
X112520000Y-66890000D01*
G37*
X112520000Y-66890000D02*
X111440000Y-66890000D01*
X111420000Y-64650000D01*
X111850000Y-64920000D01*
X112180000Y-64930000D01*
X112420000Y-64660000D01*
X112380000Y-64270000D01*
X112125000Y-64005000D01*
X111775000Y-64075000D01*
X111450000Y-64290000D01*
X111450000Y-63490000D01*
X111680000Y-63770000D01*
X112330000Y-63720000D01*
X112520000Y-63180000D01*
X112520000Y-66890000D01*
G36*
X78020000Y-66890000D02*
G01*
X76940000Y-66890000D01*
X76920000Y-64650000D01*
X77350000Y-64920000D01*
X77680000Y-64930000D01*
X77920000Y-64660000D01*
X77880000Y-64270000D01*
X77625000Y-64005000D01*
X77275000Y-64075000D01*
X76950000Y-64290000D01*
X76950000Y-63490000D01*
X77180000Y-63770000D01*
X77830000Y-63720000D01*
X78020000Y-63180000D01*
X78020000Y-66890000D01*
G37*
X78020000Y-66890000D02*
X76940000Y-66890000D01*
X76920000Y-64650000D01*
X77350000Y-64920000D01*
X77680000Y-64930000D01*
X77920000Y-64660000D01*
X77880000Y-64270000D01*
X77625000Y-64005000D01*
X77275000Y-64075000D01*
X76950000Y-64290000D01*
X76950000Y-63490000D01*
X77180000Y-63770000D01*
X77830000Y-63720000D01*
X78020000Y-63180000D01*
X78020000Y-66890000D01*
G36*
X112520000Y-50140000D02*
G01*
X111440000Y-50140000D01*
X111420000Y-47900000D01*
X111850000Y-48170000D01*
X112180000Y-48180000D01*
X112420000Y-47910000D01*
X112380000Y-47520000D01*
X112125000Y-47255000D01*
X111775000Y-47325000D01*
X111450000Y-47540000D01*
X111450000Y-46740000D01*
X111680000Y-47020000D01*
X112330000Y-46970000D01*
X112520000Y-46430000D01*
X112520000Y-50140000D01*
G37*
X112520000Y-50140000D02*
X111440000Y-50140000D01*
X111420000Y-47900000D01*
X111850000Y-48170000D01*
X112180000Y-48180000D01*
X112420000Y-47910000D01*
X112380000Y-47520000D01*
X112125000Y-47255000D01*
X111775000Y-47325000D01*
X111450000Y-47540000D01*
X111450000Y-46740000D01*
X111680000Y-47020000D01*
X112330000Y-46970000D01*
X112520000Y-46430000D01*
X112520000Y-50140000D01*
G36*
X112520000Y-79930000D02*
G01*
X112430000Y-79860000D01*
X112250000Y-79670000D01*
X112040000Y-79590000D01*
X111720000Y-79670000D01*
X111520000Y-79830000D01*
X111520000Y-77730000D01*
X112520000Y-77730000D01*
X112520000Y-79930000D01*
G37*
X112520000Y-79930000D02*
X112430000Y-79860000D01*
X112250000Y-79670000D01*
X112040000Y-79590000D01*
X111720000Y-79670000D01*
X111520000Y-79830000D01*
X111520000Y-77730000D01*
X112520000Y-77730000D01*
X112520000Y-79930000D01*
G36*
X78020000Y-79930000D02*
G01*
X77930000Y-79860000D01*
X77750000Y-79670000D01*
X77540000Y-79590000D01*
X77220000Y-79670000D01*
X77020000Y-79830000D01*
X77020000Y-77730000D01*
X78020000Y-77730000D01*
X78020000Y-79930000D01*
G37*
X78020000Y-79930000D02*
X77930000Y-79860000D01*
X77750000Y-79670000D01*
X77540000Y-79590000D01*
X77220000Y-79670000D01*
X77020000Y-79830000D01*
X77020000Y-77730000D01*
X78020000Y-77730000D01*
X78020000Y-79930000D01*
G36*
X112520000Y-63180000D02*
G01*
X112430000Y-63110000D01*
X112250000Y-62920000D01*
X112040000Y-62840000D01*
X111720000Y-62920000D01*
X111520000Y-63080000D01*
X111520000Y-60980000D01*
X112520000Y-60980000D01*
X112520000Y-63180000D01*
G37*
X112520000Y-63180000D02*
X112430000Y-63110000D01*
X112250000Y-62920000D01*
X112040000Y-62840000D01*
X111720000Y-62920000D01*
X111520000Y-63080000D01*
X111520000Y-60980000D01*
X112520000Y-60980000D01*
X112520000Y-63180000D01*
G36*
X78020000Y-63180000D02*
G01*
X77930000Y-63110000D01*
X77750000Y-62920000D01*
X77540000Y-62840000D01*
X77220000Y-62920000D01*
X77020000Y-63080000D01*
X77020000Y-60980000D01*
X78020000Y-60980000D01*
X78020000Y-63180000D01*
G37*
X78020000Y-63180000D02*
X77930000Y-63110000D01*
X77750000Y-62920000D01*
X77540000Y-62840000D01*
X77220000Y-62920000D01*
X77020000Y-63080000D01*
X77020000Y-60980000D01*
X78020000Y-60980000D01*
X78020000Y-63180000D01*
G36*
X112520000Y-46430000D02*
G01*
X112430000Y-46360000D01*
X112250000Y-46170000D01*
X112040000Y-46090000D01*
X111720000Y-46170000D01*
X111520000Y-46330000D01*
X111520000Y-44230000D01*
X112520000Y-44230000D01*
X112520000Y-46430000D01*
G37*
X112520000Y-46430000D02*
X112430000Y-46360000D01*
X112250000Y-46170000D01*
X112040000Y-46090000D01*
X111720000Y-46170000D01*
X111520000Y-46330000D01*
X111520000Y-44230000D01*
X112520000Y-44230000D01*
X112520000Y-46430000D01*
G36*
X110060000Y-81800000D02*
G01*
X110040000Y-82970000D01*
X108550000Y-82930000D01*
X108830000Y-82620000D01*
X108840000Y-82300000D01*
X108640000Y-82050000D01*
X108320000Y-82000000D01*
X107950000Y-82230000D01*
X107930000Y-81750000D01*
X110060000Y-81800000D01*
G37*
X110060000Y-81800000D02*
X110040000Y-82970000D01*
X108550000Y-82930000D01*
X108830000Y-82620000D01*
X108840000Y-82300000D01*
X108640000Y-82050000D01*
X108320000Y-82000000D01*
X107950000Y-82230000D01*
X107930000Y-81750000D01*
X110060000Y-81800000D01*
G36*
X75560000Y-81800000D02*
G01*
X75540000Y-82970000D01*
X74050000Y-82930000D01*
X74330000Y-82620000D01*
X74340000Y-82300000D01*
X74140000Y-82050000D01*
X73820000Y-82000000D01*
X73450000Y-82230000D01*
X73430000Y-81750000D01*
X75560000Y-81800000D01*
G37*
X75560000Y-81800000D02*
X75540000Y-82970000D01*
X74050000Y-82930000D01*
X74330000Y-82620000D01*
X74340000Y-82300000D01*
X74140000Y-82050000D01*
X73820000Y-82000000D01*
X73450000Y-82230000D01*
X73430000Y-81750000D01*
X75560000Y-81800000D01*
G36*
X110060000Y-65050000D02*
G01*
X110040000Y-66220000D01*
X108550000Y-66180000D01*
X108830000Y-65870000D01*
X108840000Y-65550000D01*
X108640000Y-65300000D01*
X108320000Y-65250000D01*
X107950000Y-65480000D01*
X107930000Y-65000000D01*
X110060000Y-65050000D01*
G37*
X110060000Y-65050000D02*
X110040000Y-66220000D01*
X108550000Y-66180000D01*
X108830000Y-65870000D01*
X108840000Y-65550000D01*
X108640000Y-65300000D01*
X108320000Y-65250000D01*
X107950000Y-65480000D01*
X107930000Y-65000000D01*
X110060000Y-65050000D01*
G36*
X75560000Y-65050000D02*
G01*
X75540000Y-66220000D01*
X74050000Y-66180000D01*
X74330000Y-65870000D01*
X74340000Y-65550000D01*
X74140000Y-65300000D01*
X73820000Y-65250000D01*
X73450000Y-65480000D01*
X73430000Y-65000000D01*
X75560000Y-65050000D01*
G37*
X75560000Y-65050000D02*
X75540000Y-66220000D01*
X74050000Y-66180000D01*
X74330000Y-65870000D01*
X74340000Y-65550000D01*
X74140000Y-65300000D01*
X73820000Y-65250000D01*
X73450000Y-65480000D01*
X73430000Y-65000000D01*
X75560000Y-65050000D01*
G36*
X110060000Y-48300000D02*
G01*
X110040000Y-49470000D01*
X108550000Y-49430000D01*
X108830000Y-49120000D01*
X108840000Y-48800000D01*
X108640000Y-48550000D01*
X108320000Y-48500000D01*
X107950000Y-48730000D01*
X107930000Y-48250000D01*
X110060000Y-48300000D01*
G37*
X110060000Y-48300000D02*
X110040000Y-49470000D01*
X108550000Y-49430000D01*
X108830000Y-49120000D01*
X108840000Y-48800000D01*
X108640000Y-48550000D01*
X108320000Y-48500000D01*
X107950000Y-48730000D01*
X107930000Y-48250000D01*
X110060000Y-48300000D01*
D11*
X112430000Y-81260000D02*
G75*
G03*
X112430000Y-81260000I-430000J0D01*
G01*
X77930000Y-81260000D02*
G75*
G03*
X77930000Y-81260000I-430000J0D01*
G01*
X112430000Y-64510000D02*
G75*
G03*
X112430000Y-64510000I-430000J0D01*
G01*
X77930000Y-64510000D02*
G75*
G03*
X77930000Y-64510000I-430000J0D01*
G01*
X112430000Y-47760000D02*
G75*
G03*
X112430000Y-47760000I-430000J0D01*
G01*
X112420000Y-80060000D02*
G75*
G03*
X112420000Y-80060000I-430000J0D01*
G01*
X77920000Y-80060000D02*
G75*
G03*
X77920000Y-80060000I-430000J0D01*
G01*
X112420000Y-63310000D02*
G75*
G03*
X112420000Y-63310000I-430000J0D01*
G01*
X77920000Y-63310000D02*
G75*
G03*
X77920000Y-63310000I-430000J0D01*
G01*
X112420000Y-46560000D02*
G75*
G03*
X112420000Y-46560000I-430000J0D01*
G01*
D10*
G36*
X110040000Y-82962500D02*
G01*
X110050000Y-83640000D01*
X107890000Y-83640000D01*
X107890000Y-82950000D01*
X110040000Y-82962500D01*
G37*
X110040000Y-82962500D02*
X110050000Y-83640000D01*
X107890000Y-83640000D01*
X107890000Y-82950000D01*
X110040000Y-82962500D01*
G36*
X75540000Y-82962500D02*
G01*
X75550000Y-83640000D01*
X73390000Y-83640000D01*
X73390000Y-82950000D01*
X75540000Y-82962500D01*
G37*
X75540000Y-82962500D02*
X75550000Y-83640000D01*
X73390000Y-83640000D01*
X73390000Y-82950000D01*
X75540000Y-82962500D01*
G36*
X110040000Y-66212500D02*
G01*
X110050000Y-66890000D01*
X107890000Y-66890000D01*
X107890000Y-66200000D01*
X110040000Y-66212500D01*
G37*
X110040000Y-66212500D02*
X110050000Y-66890000D01*
X107890000Y-66890000D01*
X107890000Y-66200000D01*
X110040000Y-66212500D01*
G36*
X75540000Y-66212500D02*
G01*
X75550000Y-66890000D01*
X73390000Y-66890000D01*
X73390000Y-66200000D01*
X75540000Y-66212500D01*
G37*
X75540000Y-66212500D02*
X75550000Y-66890000D01*
X73390000Y-66890000D01*
X73390000Y-66200000D01*
X75540000Y-66212500D01*
G36*
X110040000Y-49462500D02*
G01*
X110050000Y-50140000D01*
X107890000Y-50140000D01*
X107890000Y-49450000D01*
X110040000Y-49462500D01*
G37*
X110040000Y-49462500D02*
X110050000Y-50140000D01*
X107890000Y-50140000D01*
X107890000Y-49450000D01*
X110040000Y-49462500D01*
G36*
X108400000Y-81725000D02*
G01*
X108840000Y-81515000D01*
X108840000Y-81840000D01*
X107950000Y-81830000D01*
X107950000Y-81480000D01*
X108400000Y-81725000D01*
G37*
X108400000Y-81725000D02*
X108840000Y-81515000D01*
X108840000Y-81840000D01*
X107950000Y-81830000D01*
X107950000Y-81480000D01*
X108400000Y-81725000D01*
G36*
X73900000Y-81725000D02*
G01*
X74340000Y-81515000D01*
X74340000Y-81840000D01*
X73450000Y-81830000D01*
X73450000Y-81480000D01*
X73900000Y-81725000D01*
G37*
X73900000Y-81725000D02*
X74340000Y-81515000D01*
X74340000Y-81840000D01*
X73450000Y-81830000D01*
X73450000Y-81480000D01*
X73900000Y-81725000D01*
G36*
X108400000Y-64975000D02*
G01*
X108840000Y-64765000D01*
X108840000Y-65090000D01*
X107950000Y-65080000D01*
X107950000Y-64730000D01*
X108400000Y-64975000D01*
G37*
X108400000Y-64975000D02*
X108840000Y-64765000D01*
X108840000Y-65090000D01*
X107950000Y-65080000D01*
X107950000Y-64730000D01*
X108400000Y-64975000D01*
G36*
X73900000Y-64975000D02*
G01*
X74340000Y-64765000D01*
X74340000Y-65090000D01*
X73450000Y-65080000D01*
X73450000Y-64730000D01*
X73900000Y-64975000D01*
G37*
X73900000Y-64975000D02*
X74340000Y-64765000D01*
X74340000Y-65090000D01*
X73450000Y-65080000D01*
X73450000Y-64730000D01*
X73900000Y-64975000D01*
G36*
X108400000Y-48225000D02*
G01*
X108840000Y-48015000D01*
X108840000Y-48340000D01*
X107950000Y-48330000D01*
X107950000Y-47980000D01*
X108400000Y-48225000D01*
G37*
X108400000Y-48225000D02*
X108840000Y-48015000D01*
X108840000Y-48340000D01*
X107950000Y-48330000D01*
X107950000Y-47980000D01*
X108400000Y-48225000D01*
G36*
X108380000Y-79320000D02*
G01*
X108860000Y-79140000D01*
X108840000Y-79820000D01*
X108410000Y-79620000D01*
X107950000Y-79800000D01*
X107940000Y-79090000D01*
X108380000Y-79320000D01*
G37*
X108380000Y-79320000D02*
X108860000Y-79140000D01*
X108840000Y-79820000D01*
X108410000Y-79620000D01*
X107950000Y-79800000D01*
X107940000Y-79090000D01*
X108380000Y-79320000D01*
G36*
X73880000Y-79320000D02*
G01*
X74360000Y-79140000D01*
X74340000Y-79820000D01*
X73910000Y-79620000D01*
X73450000Y-79800000D01*
X73440000Y-79090000D01*
X73880000Y-79320000D01*
G37*
X73880000Y-79320000D02*
X74360000Y-79140000D01*
X74340000Y-79820000D01*
X73910000Y-79620000D01*
X73450000Y-79800000D01*
X73440000Y-79090000D01*
X73880000Y-79320000D01*
G36*
X108380000Y-62570000D02*
G01*
X108860000Y-62390000D01*
X108840000Y-63070000D01*
X108410000Y-62870000D01*
X107950000Y-63050000D01*
X107940000Y-62340000D01*
X108380000Y-62570000D01*
G37*
X108380000Y-62570000D02*
X108860000Y-62390000D01*
X108840000Y-63070000D01*
X108410000Y-62870000D01*
X107950000Y-63050000D01*
X107940000Y-62340000D01*
X108380000Y-62570000D01*
G36*
X73880000Y-62570000D02*
G01*
X74360000Y-62390000D01*
X74340000Y-63070000D01*
X73910000Y-62870000D01*
X73450000Y-63050000D01*
X73440000Y-62340000D01*
X73880000Y-62570000D01*
G37*
X73880000Y-62570000D02*
X74360000Y-62390000D01*
X74340000Y-63070000D01*
X73910000Y-62870000D01*
X73450000Y-63050000D01*
X73440000Y-62340000D01*
X73880000Y-62570000D01*
G36*
X108380000Y-45820000D02*
G01*
X108860000Y-45640000D01*
X108840000Y-46320000D01*
X108410000Y-46120000D01*
X107950000Y-46300000D01*
X107940000Y-45590000D01*
X108380000Y-45820000D01*
G37*
X108380000Y-45820000D02*
X108860000Y-45640000D01*
X108840000Y-46320000D01*
X108410000Y-46120000D01*
X107950000Y-46300000D01*
X107940000Y-45590000D01*
X108380000Y-45820000D01*
G36*
X73710000Y-49400000D02*
G01*
X73840000Y-49530000D01*
X73360000Y-49470000D01*
X73430000Y-49140000D01*
X73710000Y-49400000D01*
G37*
X73710000Y-49400000D02*
X73840000Y-49530000D01*
X73360000Y-49470000D01*
X73430000Y-49140000D01*
X73710000Y-49400000D01*
G36*
X75560000Y-48300000D02*
G01*
X75540000Y-49470000D01*
X74050000Y-49430000D01*
X74330000Y-49120000D01*
X74340000Y-48800000D01*
X74140000Y-48550000D01*
X73820000Y-48500000D01*
X73450000Y-48730000D01*
X73430000Y-48250000D01*
X75560000Y-48300000D01*
G37*
X75560000Y-48300000D02*
X75540000Y-49470000D01*
X74050000Y-49430000D01*
X74330000Y-49120000D01*
X74340000Y-48800000D01*
X74140000Y-48550000D01*
X73820000Y-48500000D01*
X73450000Y-48730000D01*
X73430000Y-48250000D01*
X75560000Y-48300000D01*
G36*
X75540000Y-49462500D02*
G01*
X75550000Y-50140000D01*
X73390000Y-50140000D01*
X73390000Y-49450000D01*
X75540000Y-49462500D01*
G37*
X75540000Y-49462500D02*
X75550000Y-50140000D01*
X73390000Y-50140000D01*
X73390000Y-49450000D01*
X75540000Y-49462500D01*
G36*
X78020000Y-46430000D02*
G01*
X77930000Y-46360000D01*
X77750000Y-46170000D01*
X77540000Y-46090000D01*
X77220000Y-46170000D01*
X77020000Y-46330000D01*
X77020000Y-44230000D01*
X78020000Y-44230000D01*
X78020000Y-46430000D01*
G37*
X78020000Y-46430000D02*
X77930000Y-46360000D01*
X77750000Y-46170000D01*
X77540000Y-46090000D01*
X77220000Y-46170000D01*
X77020000Y-46330000D01*
X77020000Y-44230000D01*
X78020000Y-44230000D01*
X78020000Y-46430000D01*
D11*
X77920000Y-46560000D02*
G75*
G03*
X77920000Y-46560000I-430000J0D01*
G01*
D10*
G36*
X78020000Y-50140000D02*
G01*
X76940000Y-50140000D01*
X76920000Y-47900000D01*
X77350000Y-48170000D01*
X77680000Y-48180000D01*
X77920000Y-47910000D01*
X77880000Y-47520000D01*
X77625000Y-47255000D01*
X77275000Y-47325000D01*
X76950000Y-47540000D01*
X76950000Y-46740000D01*
X77180000Y-47020000D01*
X77830000Y-46970000D01*
X78020000Y-46430000D01*
X78020000Y-50140000D01*
G37*
X78020000Y-50140000D02*
X76940000Y-50140000D01*
X76920000Y-47900000D01*
X77350000Y-48170000D01*
X77680000Y-48180000D01*
X77920000Y-47910000D01*
X77880000Y-47520000D01*
X77625000Y-47255000D01*
X77275000Y-47325000D01*
X76950000Y-47540000D01*
X76950000Y-46740000D01*
X77180000Y-47020000D01*
X77830000Y-46970000D01*
X78020000Y-46430000D01*
X78020000Y-50140000D01*
G36*
X75620000Y-45210000D02*
G01*
X75620000Y-45760000D01*
X75090000Y-45790000D01*
X74760000Y-45780000D01*
X74400000Y-45370000D01*
X74200000Y-45000000D01*
X74195000Y-44230000D01*
X75665000Y-44230000D01*
X75620000Y-45210000D01*
G37*
X75620000Y-45210000D02*
X75620000Y-45760000D01*
X75090000Y-45790000D01*
X74760000Y-45780000D01*
X74400000Y-45370000D01*
X74200000Y-45000000D01*
X74195000Y-44230000D01*
X75665000Y-44230000D01*
X75620000Y-45210000D01*
G36*
X74650000Y-45150000D02*
G01*
X74665000Y-45595000D01*
X74995000Y-45825000D01*
X75360000Y-45740000D01*
X75580000Y-45560000D01*
X75580000Y-47210000D01*
X75190000Y-47260000D01*
X74350000Y-47260000D01*
X74330000Y-45140000D01*
X74650000Y-45150000D01*
G37*
X74650000Y-45150000D02*
X74665000Y-45595000D01*
X74995000Y-45825000D01*
X75360000Y-45740000D01*
X75580000Y-45560000D01*
X75580000Y-47210000D01*
X75190000Y-47260000D01*
X74350000Y-47260000D01*
X74330000Y-45140000D01*
X74650000Y-45150000D01*
D11*
X77930000Y-47760000D02*
G75*
G03*
X77930000Y-47760000I-430000J0D01*
G01*
D10*
G36*
X73610000Y-44920000D02*
G01*
X73480000Y-45120000D01*
X73440000Y-44910000D01*
X73610000Y-44920000D01*
G37*
X73610000Y-44920000D02*
X73480000Y-45120000D01*
X73440000Y-44910000D01*
X73610000Y-44920000D01*
G36*
X73880000Y-45820000D02*
G01*
X74360000Y-45640000D01*
X74340000Y-46320000D01*
X73910000Y-46120000D01*
X73450000Y-46300000D01*
X73440000Y-45590000D01*
X73880000Y-45820000D01*
G37*
X73880000Y-45820000D02*
X74360000Y-45640000D01*
X74340000Y-46320000D01*
X73910000Y-46120000D01*
X73450000Y-46300000D01*
X73440000Y-45590000D01*
X73880000Y-45820000D01*
G36*
X73900000Y-48225000D02*
G01*
X74340000Y-48015000D01*
X74340000Y-48340000D01*
X73450000Y-48330000D01*
X73450000Y-47980000D01*
X73900000Y-48225000D01*
G37*
X73900000Y-48225000D02*
X74340000Y-48015000D01*
X74340000Y-48340000D01*
X73450000Y-48330000D01*
X73450000Y-47980000D01*
X73900000Y-48225000D01*
G36*
X73910000Y-47030000D02*
G01*
X74340000Y-46830000D01*
X74340000Y-47460000D01*
X73900000Y-47300000D01*
X73450000Y-47470000D01*
X73450000Y-46800000D01*
X73910000Y-47030000D01*
G37*
X73910000Y-47030000D02*
X74340000Y-46830000D01*
X74340000Y-47460000D01*
X73900000Y-47300000D01*
X73450000Y-47470000D01*
X73450000Y-46800000D01*
X73910000Y-47030000D01*
D11*
X74330000Y-48960000D02*
G75*
G03*
X74330000Y-48960000I-430000J0D01*
G01*
X74330000Y-45360000D02*
G75*
G03*
X74330000Y-45360000I-430000J0D01*
G01*
X74330000Y-46560000D02*
G75*
G03*
X74330000Y-46560000I-430000J0D01*
G01*
X74330000Y-47760000D02*
G75*
G03*
X74330000Y-47760000I-430000J0D01*
G01*
D10*
G36*
X75540000Y-48460000D02*
G01*
X74320000Y-48460000D01*
X74320000Y-47050000D01*
X75540000Y-47050000D01*
X75540000Y-48460000D01*
G37*
X75540000Y-48460000D02*
X74320000Y-48460000D01*
X74320000Y-47050000D01*
X75540000Y-47050000D01*
X75540000Y-48460000D01*
G36*
X74531250Y-44920000D02*
G01*
X74297402Y-44990000D01*
X74168750Y-44940000D01*
X73430000Y-44940000D01*
X73430000Y-44230000D01*
X74530000Y-44230000D01*
X74531250Y-44920000D01*
G37*
X74531250Y-44920000D02*
X74297402Y-44990000D01*
X74168750Y-44940000D01*
X73430000Y-44940000D01*
X73430000Y-44230000D01*
X74530000Y-44230000D01*
X74531250Y-44920000D01*
G36*
X73450000Y-50140000D02*
G01*
X72470000Y-50140000D01*
X72470000Y-44230000D01*
X73440000Y-44230000D01*
X73450000Y-50140000D01*
G37*
X73450000Y-50140000D02*
X72470000Y-50140000D01*
X72470000Y-44230000D01*
X73440000Y-44230000D01*
X73450000Y-50140000D01*
G36*
X77040000Y-50140000D02*
G01*
X75250000Y-50140000D01*
X75280000Y-44230000D01*
X77010000Y-44230000D01*
X77040000Y-50140000D01*
G37*
X77040000Y-50140000D02*
X75250000Y-50140000D01*
X75280000Y-44230000D01*
X77010000Y-44230000D01*
X77040000Y-50140000D01*
D12*
%TO.C,U5*%
X120943137Y-73830000D02*
G75*
G03*
X120943137Y-73830000I-56569J0D01*
G01*
X86443137Y-73830000D02*
G75*
G03*
X86443137Y-73830000I-56569J0D01*
G01*
X120943137Y-57080000D02*
G75*
G03*
X120943137Y-57080000I-56569J0D01*
G01*
X86443137Y-57080000D02*
G75*
G03*
X86443137Y-57080000I-56569J0D01*
G01*
X120943137Y-40330000D02*
G75*
G03*
X120943137Y-40330000I-56569J0D01*
G01*
%TO.C,U7*%
X125983137Y-73830000D02*
G75*
G03*
X125983137Y-73830000I-56569J0D01*
G01*
X91483137Y-73830000D02*
G75*
G03*
X91483137Y-73830000I-56569J0D01*
G01*
X125983137Y-57080000D02*
G75*
G03*
X125983137Y-57080000I-56569J0D01*
G01*
X91483137Y-57080000D02*
G75*
G03*
X91483137Y-57080000I-56569J0D01*
G01*
X125983137Y-40330000D02*
G75*
G03*
X125983137Y-40330000I-56569J0D01*
G01*
D13*
%TO.C,U3*%
X112791231Y-76280000D02*
G75*
G03*
X112791231Y-76280000I-41231J0D01*
G01*
X78291231Y-76280000D02*
G75*
G03*
X78291231Y-76280000I-41231J0D01*
G01*
X112791231Y-59530000D02*
G75*
G03*
X112791231Y-59530000I-41231J0D01*
G01*
X78291231Y-59530000D02*
G75*
G03*
X78291231Y-59530000I-41231J0D01*
G01*
X112791231Y-42780000D02*
G75*
G03*
X112791231Y-42780000I-41231J0D01*
G01*
D14*
%TO.C,CR1*%
X121866200Y-79090000D02*
G75*
G03*
X121866200Y-79090000I-76200J0D01*
G01*
X87366200Y-79090000D02*
G75*
G03*
X87366200Y-79090000I-76200J0D01*
G01*
X121866200Y-62340000D02*
G75*
G03*
X121866200Y-62340000I-76200J0D01*
G01*
X87366200Y-62340000D02*
G75*
G03*
X87366200Y-62340000I-76200J0D01*
G01*
X121866200Y-45590000D02*
G75*
G03*
X121866200Y-45590000I-76200J0D01*
G01*
D15*
%TO.C,U4*%
X104341419Y-83440000D02*
G75*
G03*
X104341419Y-83440000I-141419J0D01*
G01*
D12*
X104253852Y-83440000D02*
G75*
G03*
X104253852Y-83440000I-53852J0D01*
G01*
D15*
X69841419Y-83440000D02*
G75*
G03*
X69841419Y-83440000I-141419J0D01*
G01*
D12*
X69753852Y-83440000D02*
G75*
G03*
X69753852Y-83440000I-53852J0D01*
G01*
D15*
X104341419Y-66690000D02*
G75*
G03*
X104341419Y-66690000I-141419J0D01*
G01*
D12*
X104253852Y-66690000D02*
G75*
G03*
X104253852Y-66690000I-53852J0D01*
G01*
D15*
X69841419Y-66690000D02*
G75*
G03*
X69841419Y-66690000I-141419J0D01*
G01*
D12*
X69753852Y-66690000D02*
G75*
G03*
X69753852Y-66690000I-53852J0D01*
G01*
D15*
X104341419Y-49940000D02*
G75*
G03*
X104341419Y-49940000I-141419J0D01*
G01*
D12*
X104253852Y-49940000D02*
G75*
G03*
X104253852Y-49940000I-53852J0D01*
G01*
D13*
%TO.C,U2*%
X126525000Y-79680000D02*
G75*
G03*
X126525000Y-79680000I-125000J0D01*
G01*
X92025000Y-79680000D02*
G75*
G03*
X92025000Y-79680000I-125000J0D01*
G01*
X126525000Y-62930000D02*
G75*
G03*
X126525000Y-62930000I-125000J0D01*
G01*
X92025000Y-62930000D02*
G75*
G03*
X92025000Y-62930000I-125000J0D01*
G01*
X126525000Y-46180000D02*
G75*
G03*
X126525000Y-46180000I-125000J0D01*
G01*
D16*
%TO.C,Y1*%
X111420000Y-74350000D02*
G75*
G03*
X111420000Y-74350000I-100000J0D01*
G01*
D17*
X109570000Y-73020000D02*
X108690000Y-73020000D01*
X109570000Y-74520000D02*
X108690000Y-74520000D01*
D16*
X76920000Y-74350000D02*
G75*
G03*
X76920000Y-74350000I-100000J0D01*
G01*
D17*
X75070000Y-73020000D02*
X74190000Y-73020000D01*
X75070000Y-74520000D02*
X74190000Y-74520000D01*
D16*
X111420000Y-57600000D02*
G75*
G03*
X111420000Y-57600000I-100000J0D01*
G01*
D17*
X109570000Y-56270000D02*
X108690000Y-56270000D01*
X109570000Y-57770000D02*
X108690000Y-57770000D01*
D16*
X76920000Y-57600000D02*
G75*
G03*
X76920000Y-57600000I-100000J0D01*
G01*
D17*
X75070000Y-56270000D02*
X74190000Y-56270000D01*
X75070000Y-57770000D02*
X74190000Y-57770000D01*
D16*
X111420000Y-40850000D02*
G75*
G03*
X111420000Y-40850000I-100000J0D01*
G01*
D17*
X109570000Y-39520000D02*
X108690000Y-39520000D01*
X109570000Y-41020000D02*
X108690000Y-41020000D01*
%TO.C,D3*%
X125790000Y-83950000D02*
X125790000Y-84770000D01*
D12*
X125436569Y-83260000D02*
G75*
G03*
X125436569Y-83260000I-56569J0D01*
G01*
D17*
X124970000Y-83950000D02*
X124970000Y-84770000D01*
X91290000Y-83950000D02*
X91290000Y-84770000D01*
D12*
X90936569Y-83260000D02*
G75*
G03*
X90936569Y-83260000I-56569J0D01*
G01*
D17*
X90470000Y-83950000D02*
X90470000Y-84770000D01*
X125790000Y-67200000D02*
X125790000Y-68020000D01*
D12*
X125436569Y-66510000D02*
G75*
G03*
X125436569Y-66510000I-56569J0D01*
G01*
D17*
X124970000Y-67200000D02*
X124970000Y-68020000D01*
X91290000Y-67200000D02*
X91290000Y-68020000D01*
D12*
X90936569Y-66510000D02*
G75*
G03*
X90936569Y-66510000I-56569J0D01*
G01*
D17*
X90470000Y-67200000D02*
X90470000Y-68020000D01*
X125790000Y-50450000D02*
X125790000Y-51270000D01*
D12*
X125436569Y-49760000D02*
G75*
G03*
X125436569Y-49760000I-56569J0D01*
G01*
D17*
X124970000Y-50450000D02*
X124970000Y-51270000D01*
D12*
%TO.C,D1*%
X119626056Y-76510000D02*
G75*
G03*
X119626056Y-76510000I-36056J0D01*
G01*
X120310000Y-78260000D02*
X120310000Y-77400000D01*
X119510000Y-78260000D02*
X119510000Y-77400000D01*
X119682195Y-76510000D02*
G75*
G03*
X119682195Y-76510000I-92195J0D01*
G01*
X85126056Y-76510000D02*
G75*
G03*
X85126056Y-76510000I-36056J0D01*
G01*
X85810000Y-78260000D02*
X85810000Y-77400000D01*
X85010000Y-78260000D02*
X85010000Y-77400000D01*
X85182195Y-76510000D02*
G75*
G03*
X85182195Y-76510000I-92195J0D01*
G01*
X119626056Y-59760000D02*
G75*
G03*
X119626056Y-59760000I-36056J0D01*
G01*
X120310000Y-61510000D02*
X120310000Y-60650000D01*
X119510000Y-61510000D02*
X119510000Y-60650000D01*
X119682195Y-59760000D02*
G75*
G03*
X119682195Y-59760000I-92195J0D01*
G01*
X85126056Y-59760000D02*
G75*
G03*
X85126056Y-59760000I-36056J0D01*
G01*
X85810000Y-61510000D02*
X85810000Y-60650000D01*
X85010000Y-61510000D02*
X85010000Y-60650000D01*
X85182195Y-59760000D02*
G75*
G03*
X85182195Y-59760000I-92195J0D01*
G01*
X119626056Y-43010000D02*
G75*
G03*
X119626056Y-43010000I-36056J0D01*
G01*
X120310000Y-44760000D02*
X120310000Y-43900000D01*
X119510000Y-44760000D02*
X119510000Y-43900000D01*
X119682195Y-43010000D02*
G75*
G03*
X119682195Y-43010000I-92195J0D01*
G01*
D17*
%TO.C,D2*%
X127910000Y-83950000D02*
X127910000Y-84770000D01*
D12*
X127556569Y-83260000D02*
G75*
G03*
X127556569Y-83260000I-56569J0D01*
G01*
D17*
X127090000Y-83950000D02*
X127090000Y-84770000D01*
X93410000Y-83950000D02*
X93410000Y-84770000D01*
D12*
X93056569Y-83260000D02*
G75*
G03*
X93056569Y-83260000I-56569J0D01*
G01*
D17*
X92590000Y-83950000D02*
X92590000Y-84770000D01*
X127910000Y-67200000D02*
X127910000Y-68020000D01*
D12*
X127556569Y-66510000D02*
G75*
G03*
X127556569Y-66510000I-56569J0D01*
G01*
D17*
X127090000Y-67200000D02*
X127090000Y-68020000D01*
X93410000Y-67200000D02*
X93410000Y-68020000D01*
D12*
X93056569Y-66510000D02*
G75*
G03*
X93056569Y-66510000I-56569J0D01*
G01*
D17*
X92590000Y-67200000D02*
X92590000Y-68020000D01*
X127910000Y-50450000D02*
X127910000Y-51270000D01*
D12*
X127556569Y-49760000D02*
G75*
G03*
X127556569Y-49760000I-56569J0D01*
G01*
D17*
X127090000Y-50450000D02*
X127090000Y-51270000D01*
%TO.C,J2*%
X127560000Y-71890000D02*
X129460000Y-71890000D01*
X127560000Y-72740000D02*
X127560000Y-71890000D01*
X127560000Y-77890000D02*
X129460000Y-77890000D01*
X127560000Y-77040000D02*
X127560000Y-77890000D01*
X93060000Y-71890000D02*
X94960000Y-71890000D01*
X93060000Y-72740000D02*
X93060000Y-71890000D01*
X93060000Y-77890000D02*
X94960000Y-77890000D01*
X93060000Y-77040000D02*
X93060000Y-77890000D01*
X127560000Y-55140000D02*
X129460000Y-55140000D01*
X127560000Y-55990000D02*
X127560000Y-55140000D01*
X127560000Y-61140000D02*
X129460000Y-61140000D01*
X127560000Y-60290000D02*
X127560000Y-61140000D01*
X93060000Y-55140000D02*
X94960000Y-55140000D01*
X93060000Y-55990000D02*
X93060000Y-55140000D01*
X93060000Y-61140000D02*
X94960000Y-61140000D01*
X93060000Y-60290000D02*
X93060000Y-61140000D01*
X127560000Y-38390000D02*
X129460000Y-38390000D01*
X127560000Y-39240000D02*
X127560000Y-38390000D01*
X127560000Y-44390000D02*
X129460000Y-44390000D01*
X127560000Y-43540000D02*
X127560000Y-44390000D01*
D15*
%TO.C,U1*%
X118490000Y-74850000D02*
G75*
G03*
X118490000Y-74850000I-30000J0D01*
G01*
X83990000Y-74850000D02*
G75*
G03*
X83990000Y-74850000I-30000J0D01*
G01*
X118490000Y-58100000D02*
G75*
G03*
X118490000Y-58100000I-30000J0D01*
G01*
X83990000Y-58100000D02*
G75*
G03*
X83990000Y-58100000I-30000J0D01*
G01*
X118490000Y-41350000D02*
G75*
G03*
X118490000Y-41350000I-30000J0D01*
G01*
D12*
%TO.C,U6*%
X123483137Y-73830000D02*
G75*
G03*
X123483137Y-73830000I-56569J0D01*
G01*
X88983137Y-73830000D02*
G75*
G03*
X88983137Y-73830000I-56569J0D01*
G01*
X123483137Y-57080000D02*
G75*
G03*
X123483137Y-57080000I-56569J0D01*
G01*
X88983137Y-57080000D02*
G75*
G03*
X88983137Y-57080000I-56569J0D01*
G01*
X123483137Y-40330000D02*
G75*
G03*
X123483137Y-40330000I-56569J0D01*
G01*
%TO.C,U4*%
X69753852Y-49940000D02*
G75*
G03*
X69753852Y-49940000I-53852J0D01*
G01*
D15*
X69841419Y-49940000D02*
G75*
G03*
X69841419Y-49940000I-141419J0D01*
G01*
D17*
%TO.C,D2*%
X92590000Y-50450000D02*
X92590000Y-51270000D01*
D12*
X93056569Y-49760000D02*
G75*
G03*
X93056569Y-49760000I-56569J0D01*
G01*
D17*
X93410000Y-50450000D02*
X93410000Y-51270000D01*
%TO.C,D3*%
X90470000Y-50450000D02*
X90470000Y-51270000D01*
D12*
X90936569Y-49760000D02*
G75*
G03*
X90936569Y-49760000I-56569J0D01*
G01*
D17*
X91290000Y-50450000D02*
X91290000Y-51270000D01*
D13*
%TO.C,U3*%
X78291231Y-42780000D02*
G75*
G03*
X78291231Y-42780000I-41231J0D01*
G01*
D14*
%TO.C,CR1*%
X87366200Y-45590000D02*
G75*
G03*
X87366200Y-45590000I-76200J0D01*
G01*
D12*
%TO.C,U6*%
X88983137Y-40330000D02*
G75*
G03*
X88983137Y-40330000I-56569J0D01*
G01*
D15*
%TO.C,U1*%
X83990000Y-41350000D02*
G75*
G03*
X83990000Y-41350000I-30000J0D01*
G01*
D17*
%TO.C,J2*%
X93060000Y-43540000D02*
X93060000Y-44390000D01*
X93060000Y-44390000D02*
X94960000Y-44390000D01*
X93060000Y-39240000D02*
X93060000Y-38390000D01*
X93060000Y-38390000D02*
X94960000Y-38390000D01*
D12*
%TO.C,D1*%
X85182195Y-43010000D02*
G75*
G03*
X85182195Y-43010000I-92195J0D01*
G01*
X85010000Y-44760000D02*
X85010000Y-43900000D01*
X85810000Y-44760000D02*
X85810000Y-43900000D01*
X85126056Y-43010000D02*
G75*
G03*
X85126056Y-43010000I-36056J0D01*
G01*
D17*
%TO.C,Y1*%
X75070000Y-41020000D02*
X74190000Y-41020000D01*
X75070000Y-39520000D02*
X74190000Y-39520000D01*
D16*
X76920000Y-40850000D02*
G75*
G03*
X76920000Y-40850000I-100000J0D01*
G01*
D13*
%TO.C,U2*%
X92025000Y-46180000D02*
G75*
G03*
X92025000Y-46180000I-125000J0D01*
G01*
D12*
%TO.C,U5*%
X86443137Y-40330000D02*
G75*
G03*
X86443137Y-40330000I-56569J0D01*
G01*
%TO.C,U7*%
X91483137Y-40330000D02*
G75*
G03*
X91483137Y-40330000I-56569J0D01*
G01*
%TD*%
M02*
