M48
; DRILL file {KiCad (5.1.9)-1} date 11/10/21 23:35:09
; FORMAT={-:-/ absolute / metric / decimal}
; #@! TF.CreationDate,2021-11-10T23:35:09-06:00
; #@! TF.GenerationSoftware,Kicad,Pcbnew,(5.1.9)-1
; #@! TF.FileFunction,NonPlated,1,4,NPTH
FMAT,2
METRIC
T1C0.500
T2C2.000
%
G90
G05
T1
X61.53Y-85.92
X61.55Y-70.06
X61.56Y-37.96
X61.56Y-53.42
X62.296Y-85.92
X62.316Y-70.06
X62.326Y-37.96
X62.326Y-53.42
X63.062Y-85.92
X63.082Y-70.06
X63.092Y-37.96
X63.092Y-53.42
X63.828Y-85.92
X63.848Y-70.06
X63.858Y-37.96
X63.858Y-53.42
X64.594Y-85.92
X64.614Y-70.06
X64.624Y-37.96
X64.624Y-53.42
X65.36Y-85.92
X65.38Y-70.06
X65.39Y-37.96
X65.39Y-53.42
X68.625Y-42.78
X68.625Y-43.545
X68.625Y-44.31
X68.625Y-45.075
X68.625Y-45.84
X68.625Y-46.605
X68.625Y-47.37
X68.625Y-59.53
X68.625Y-60.295
X68.625Y-61.06
X68.625Y-61.825
X68.625Y-62.59
X68.625Y-63.355
X68.625Y-64.12
X68.625Y-76.28
X68.625Y-77.045
X68.625Y-77.81
X68.625Y-78.575
X68.625Y-79.34
X68.625Y-80.105
X68.625Y-80.87
X68.7Y-30.81
X68.7Y-31.576
X68.7Y-32.342
X68.7Y-33.108
X68.7Y-33.874
X68.7Y-34.64
X68.71Y-89.22
X68.71Y-89.986
X68.71Y-90.752
X68.71Y-91.518
X68.71Y-92.284
X68.71Y-93.05
X100.675Y-42.78
X100.675Y-43.545
X100.675Y-44.31
X100.675Y-45.075
X100.675Y-45.84
X100.675Y-46.605
X100.675Y-47.37
X100.675Y-59.53
X100.675Y-60.295
X100.675Y-61.06
X100.675Y-61.825
X100.675Y-62.59
X100.675Y-63.355
X100.675Y-64.12
X100.675Y-76.28
X100.675Y-77.045
X100.675Y-77.81
X100.675Y-78.575
X100.675Y-79.34
X100.675Y-80.105
X100.675Y-80.87
X103.125Y-42.78
X103.125Y-43.545
X103.125Y-44.31
X103.125Y-45.075
X103.125Y-45.84
X103.125Y-46.605
X103.125Y-47.37
X103.125Y-59.53
X103.125Y-60.295
X103.125Y-61.06
X103.125Y-61.825
X103.125Y-62.59
X103.125Y-63.355
X103.125Y-64.12
X103.125Y-76.28
X103.125Y-77.045
X103.125Y-77.81
X103.125Y-78.575
X103.125Y-79.34
X103.125Y-80.105
X103.125Y-80.87
X135.08Y-30.82
X135.08Y-31.586
X135.08Y-32.352
X135.08Y-33.118
X135.08Y-33.884
X135.08Y-34.65
X135.08Y-89.28
X135.08Y-90.046
X135.08Y-90.812
X135.08Y-91.578
X135.08Y-92.344
X135.08Y-93.11
X135.175Y-42.78
X135.175Y-43.545
X135.175Y-44.31
X135.175Y-45.075
X135.175Y-45.84
X135.175Y-46.605
X135.175Y-47.37
X135.175Y-59.53
X135.175Y-60.295
X135.175Y-61.06
X135.175Y-61.825
X135.175Y-62.59
X135.175Y-63.355
X135.175Y-64.12
X135.175Y-76.28
X135.175Y-77.045
X135.175Y-77.81
X135.175Y-78.575
X135.175Y-79.34
X135.175Y-80.105
X135.175Y-80.87
X138.42Y-37.96
X138.42Y-70.06
X138.44Y-85.93
X138.45Y-53.42
X139.186Y-37.96
X139.186Y-70.06
X139.206Y-85.93
X139.216Y-53.42
X139.952Y-37.96
X139.952Y-70.06
X139.972Y-85.93
X139.982Y-53.42
X140.718Y-37.96
X140.718Y-70.06
X140.738Y-85.93
X140.748Y-53.42
X141.484Y-37.96
X141.484Y-70.06
X141.504Y-85.93
X141.514Y-53.42
X142.25Y-37.96
X142.25Y-70.06
X142.27Y-85.93
X142.28Y-53.42
T2
X64.906Y-89.71
X138.884Y-34.15
T0
M30
