%TF.GenerationSoftware,KiCad,Pcbnew,(5.1.9)-1*%
%TF.CreationDate,2021-11-10T23:35:07-06:00*%
%TF.ProjectId,CC_BT_PANELIZED,43435f42-545f-4504-914e-454c495a4544,000*%
%TF.SameCoordinates,Original*%
%TF.FileFunction,Soldermask,Bot*%
%TF.FilePolarity,Negative*%
%FSLAX46Y46*%
G04 Gerber Fmt 4.6, Leading zero omitted, Abs format (unit mm)*
G04 Created by KiCad (PCBNEW (5.1.9)-1) date 2021-11-10 23:35:07*
%MOMM*%
%LPD*%
G01*
G04 APERTURE LIST*
%ADD10O,1.000000X1.700000*%
%ADD11O,0.850000X0.850000*%
%ADD12R,0.850000X0.850000*%
%ADD13O,0.700000X0.950000*%
%ADD14C,1.000000*%
%ADD15C,0.500000*%
%ADD16C,2.000000*%
G04 APERTURE END LIST*
D10*
%TO.C,J1*%
X122160000Y-83990000D03*
X113520000Y-80190000D03*
X122160000Y-80190000D03*
X113520000Y-83990000D03*
%TD*%
%TO.C,J1*%
X87660000Y-83990000D03*
X79020000Y-80190000D03*
X87660000Y-80190000D03*
X79020000Y-83990000D03*
%TD*%
%TO.C,J1*%
X122160000Y-67240000D03*
X113520000Y-63440000D03*
X122160000Y-63440000D03*
X113520000Y-67240000D03*
%TD*%
%TO.C,J1*%
X87660000Y-67240000D03*
X79020000Y-63440000D03*
X87660000Y-63440000D03*
X79020000Y-67240000D03*
%TD*%
%TO.C,J1*%
X122160000Y-50490000D03*
X113520000Y-46690000D03*
X122160000Y-46690000D03*
X113520000Y-50490000D03*
%TD*%
D11*
%TO.C,J3*%
X133350000Y-77330000D03*
X133350000Y-76330000D03*
X133350000Y-75330000D03*
X133350000Y-74330000D03*
D12*
X133350000Y-73330000D03*
%TD*%
D11*
%TO.C,J3*%
X98850000Y-77330000D03*
X98850000Y-76330000D03*
X98850000Y-75330000D03*
X98850000Y-74330000D03*
D12*
X98850000Y-73330000D03*
%TD*%
D11*
%TO.C,J3*%
X133350000Y-60580000D03*
X133350000Y-59580000D03*
X133350000Y-58580000D03*
X133350000Y-57580000D03*
D12*
X133350000Y-56580000D03*
%TD*%
D11*
%TO.C,J3*%
X98850000Y-60580000D03*
X98850000Y-59580000D03*
X98850000Y-58580000D03*
X98850000Y-57580000D03*
D12*
X98850000Y-56580000D03*
%TD*%
D11*
%TO.C,J3*%
X133350000Y-43830000D03*
X133350000Y-42830000D03*
X133350000Y-41830000D03*
X133350000Y-40830000D03*
D12*
X133350000Y-39830000D03*
%TD*%
D13*
%TO.C,SW1*%
X129735000Y-82730000D03*
X133785000Y-82730000D03*
%TD*%
%TO.C,SW1*%
X95235000Y-82730000D03*
X99285000Y-82730000D03*
%TD*%
%TO.C,SW1*%
X129735000Y-65980000D03*
X133785000Y-65980000D03*
%TD*%
%TO.C,SW1*%
X95235000Y-65980000D03*
X99285000Y-65980000D03*
%TD*%
%TO.C,SW1*%
X129735000Y-49230000D03*
X133785000Y-49230000D03*
%TD*%
D14*
%TO.C,REF\u002A\u002A*%
X104220000Y-72550000D03*
%TD*%
%TO.C,REF\u002A\u002A*%
X69720000Y-72550000D03*
%TD*%
%TO.C,REF\u002A\u002A*%
X104220000Y-55800000D03*
%TD*%
%TO.C,REF\u002A\u002A*%
X69720000Y-55800000D03*
%TD*%
%TO.C,REF\u002A\u002A*%
X104220000Y-39050000D03*
%TD*%
D15*
%TO.C,REF\u002A\u002A*%
X135175000Y-79340000D03*
%TD*%
%TO.C,REF\u002A\u002A*%
X135175000Y-62590000D03*
%TD*%
%TO.C,REF\u002A\u002A*%
X135175000Y-77810000D03*
%TD*%
%TO.C,REF\u002A\u002A*%
X135175000Y-61060000D03*
%TD*%
%TO.C,REF\u002A\u002A*%
X135175000Y-80870000D03*
%TD*%
%TO.C,REF\u002A\u002A*%
X135175000Y-64120000D03*
%TD*%
%TO.C,REF\u002A\u002A*%
X135175000Y-78575000D03*
%TD*%
%TO.C,REF\u002A\u002A*%
X135175000Y-61825000D03*
%TD*%
%TO.C,REF\u002A\u002A*%
X135175000Y-80105000D03*
%TD*%
%TO.C,REF\u002A\u002A*%
X135175000Y-63355000D03*
%TD*%
%TO.C,REF\u002A\u002A*%
X135175000Y-76280000D03*
%TD*%
%TO.C,REF\u002A\u002A*%
X135175000Y-59530000D03*
%TD*%
%TO.C,REF\u002A\u002A*%
X68625000Y-77045000D03*
%TD*%
%TO.C,REF\u002A\u002A*%
X68625000Y-60295000D03*
%TD*%
%TO.C,REF\u002A\u002A*%
X68625000Y-77810000D03*
%TD*%
%TO.C,REF\u002A\u002A*%
X68625000Y-61060000D03*
%TD*%
%TO.C,REF\u002A\u002A*%
X68625000Y-79340000D03*
%TD*%
%TO.C,REF\u002A\u002A*%
X68625000Y-62590000D03*
%TD*%
%TO.C,REF\u002A\u002A*%
X68625000Y-78575000D03*
%TD*%
%TO.C,REF\u002A\u002A*%
X68625000Y-61825000D03*
%TD*%
%TO.C,REF\u002A\u002A*%
X103125000Y-76280000D03*
%TD*%
%TO.C,REF\u002A\u002A*%
X103125000Y-59530000D03*
%TD*%
%TO.C,REF\u002A\u002A*%
X103125000Y-78575000D03*
%TD*%
%TO.C,REF\u002A\u002A*%
X103125000Y-61825000D03*
%TD*%
%TO.C,REF\u002A\u002A*%
X103125000Y-77045000D03*
%TD*%
%TO.C,REF\u002A\u002A*%
X103125000Y-60295000D03*
%TD*%
%TO.C,REF\u002A\u002A*%
X68625000Y-76280000D03*
%TD*%
%TO.C,REF\u002A\u002A*%
X68625000Y-59530000D03*
%TD*%
%TO.C,REF\u002A\u002A*%
X135175000Y-77045000D03*
%TD*%
%TO.C,REF\u002A\u002A*%
X135175000Y-60295000D03*
%TD*%
%TO.C,REF\u002A\u002A*%
X68625000Y-80105000D03*
%TD*%
%TO.C,REF\u002A\u002A*%
X68625000Y-63355000D03*
%TD*%
%TO.C,REF\u002A\u002A*%
X68625000Y-80870000D03*
%TD*%
%TO.C,REF\u002A\u002A*%
X68625000Y-64120000D03*
%TD*%
%TO.C,REF\u002A\u002A*%
X100675000Y-77045000D03*
%TD*%
%TO.C,REF\u002A\u002A*%
X100675000Y-60295000D03*
%TD*%
%TO.C,REF\u002A\u002A*%
X100675000Y-78575000D03*
%TD*%
%TO.C,REF\u002A\u002A*%
X100675000Y-61825000D03*
%TD*%
%TO.C,REF\u002A\u002A*%
X100675000Y-80105000D03*
%TD*%
%TO.C,REF\u002A\u002A*%
X100675000Y-63355000D03*
%TD*%
%TO.C,REF\u002A\u002A*%
X100675000Y-76280000D03*
%TD*%
%TO.C,REF\u002A\u002A*%
X100675000Y-59530000D03*
%TD*%
%TO.C,REF\u002A\u002A*%
X103125000Y-80870000D03*
%TD*%
%TO.C,REF\u002A\u002A*%
X103125000Y-64120000D03*
%TD*%
%TO.C,REF\u002A\u002A*%
X103125000Y-77810000D03*
%TD*%
%TO.C,REF\u002A\u002A*%
X103125000Y-61060000D03*
%TD*%
%TO.C,REF\u002A\u002A*%
X100675000Y-80870000D03*
%TD*%
%TO.C,REF\u002A\u002A*%
X100675000Y-64120000D03*
%TD*%
%TO.C,REF\u002A\u002A*%
X103125000Y-80105000D03*
%TD*%
%TO.C,REF\u002A\u002A*%
X103125000Y-63355000D03*
%TD*%
%TO.C,REF\u002A\u002A*%
X100675000Y-79340000D03*
%TD*%
%TO.C,REF\u002A\u002A*%
X100675000Y-62590000D03*
%TD*%
%TO.C,REF\u002A\u002A*%
X100675000Y-77810000D03*
%TD*%
%TO.C,REF\u002A\u002A*%
X100675000Y-61060000D03*
%TD*%
%TO.C,REF\u002A\u002A*%
X103125000Y-79340000D03*
%TD*%
%TO.C,REF\u002A\u002A*%
X103125000Y-62590000D03*
%TD*%
%TO.C,REF\u002A\u002A*%
X64614000Y-70060000D03*
%TD*%
%TO.C,REF\u002A\u002A*%
X63848000Y-70060000D03*
%TD*%
%TO.C,REF\u002A\u002A*%
X65380000Y-70060000D03*
%TD*%
%TO.C,REF\u002A\u002A*%
X62316000Y-70060000D03*
%TD*%
%TO.C,REF\u002A\u002A*%
X63082000Y-70060000D03*
%TD*%
%TO.C,REF\u002A\u002A*%
X61550000Y-70060000D03*
%TD*%
%TO.C,REF\u002A\u002A*%
X64624000Y-53420000D03*
%TD*%
%TO.C,REF\u002A\u002A*%
X63858000Y-53420000D03*
%TD*%
%TO.C,REF\u002A\u002A*%
X65390000Y-53420000D03*
%TD*%
%TO.C,REF\u002A\u002A*%
X62326000Y-53420000D03*
%TD*%
%TO.C,REF\u002A\u002A*%
X63092000Y-53420000D03*
%TD*%
%TO.C,REF\u002A\u002A*%
X61560000Y-53420000D03*
%TD*%
%TO.C,REF\u002A\u002A*%
X141484000Y-70060000D03*
%TD*%
%TO.C,REF\u002A\u002A*%
X140718000Y-70060000D03*
%TD*%
%TO.C,REF\u002A\u002A*%
X142250000Y-70060000D03*
%TD*%
%TO.C,REF\u002A\u002A*%
X139186000Y-70060000D03*
%TD*%
%TO.C,REF\u002A\u002A*%
X139952000Y-70060000D03*
%TD*%
%TO.C,REF\u002A\u002A*%
X138420000Y-70060000D03*
%TD*%
%TO.C,REF\u002A\u002A*%
X141514000Y-53420000D03*
%TD*%
%TO.C,REF\u002A\u002A*%
X140748000Y-53420000D03*
%TD*%
%TO.C,REF\u002A\u002A*%
X142280000Y-53420000D03*
%TD*%
%TO.C,REF\u002A\u002A*%
X139216000Y-53420000D03*
%TD*%
%TO.C,REF\u002A\u002A*%
X139982000Y-53420000D03*
%TD*%
%TO.C,REF\u002A\u002A*%
X138450000Y-53420000D03*
%TD*%
%TO.C,REF\u002A\u002A*%
X135175000Y-47370000D03*
%TD*%
%TO.C,REF\u002A\u002A*%
X135175000Y-44310000D03*
%TD*%
%TO.C,REF\u002A\u002A*%
X135175000Y-45840000D03*
%TD*%
%TO.C,REF\u002A\u002A*%
X135175000Y-42780000D03*
%TD*%
%TO.C,REF\u002A\u002A*%
X135175000Y-46605000D03*
%TD*%
%TO.C,REF\u002A\u002A*%
X135175000Y-45075000D03*
%TD*%
%TO.C,REF\u002A\u002A*%
X135175000Y-43545000D03*
%TD*%
%TO.C,REF\u002A\u002A*%
X103125000Y-46605000D03*
%TD*%
%TO.C,REF\u002A\u002A*%
X103125000Y-45075000D03*
%TD*%
%TO.C,REF\u002A\u002A*%
X103125000Y-43545000D03*
%TD*%
%TO.C,REF\u002A\u002A*%
X103125000Y-44310000D03*
%TD*%
%TO.C,REF\u002A\u002A*%
X103125000Y-42780000D03*
%TD*%
%TO.C,REF\u002A\u002A*%
X103125000Y-47370000D03*
%TD*%
%TO.C,REF\u002A\u002A*%
X103125000Y-45840000D03*
%TD*%
%TO.C,REF\u002A\u002A*%
X100675000Y-47370000D03*
%TD*%
%TO.C,REF\u002A\u002A*%
X100675000Y-44310000D03*
%TD*%
%TO.C,REF\u002A\u002A*%
X100675000Y-45840000D03*
%TD*%
%TO.C,REF\u002A\u002A*%
X100675000Y-42780000D03*
%TD*%
%TO.C,REF\u002A\u002A*%
X100675000Y-46605000D03*
%TD*%
%TO.C,REF\u002A\u002A*%
X100675000Y-45075000D03*
%TD*%
%TO.C,REF\u002A\u002A*%
X100675000Y-43545000D03*
%TD*%
%TO.C,REF\u002A\u002A*%
X68625000Y-47370000D03*
%TD*%
%TO.C,REF\u002A\u002A*%
X68625000Y-42780000D03*
%TD*%
%TO.C,REF\u002A\u002A*%
X68625000Y-46605000D03*
%TD*%
%TO.C,REF\u002A\u002A*%
X68625000Y-45075000D03*
%TD*%
%TO.C,REF\u002A\u002A*%
X68625000Y-45840000D03*
%TD*%
%TO.C,REF\u002A\u002A*%
X68625000Y-44310000D03*
%TD*%
%TO.C,REF\u002A\u002A*%
X68625000Y-43545000D03*
%TD*%
D16*
%TO.C,REF\u002A\u002A*%
X138884263Y-34150000D03*
%TD*%
%TO.C,REF\u002A\u002A*%
X64905737Y-89710000D03*
%TD*%
D15*
%TO.C,REF\u002A\u002A*%
X68710000Y-89220000D03*
%TD*%
%TO.C,REF\u002A\u002A*%
X68710000Y-89986000D03*
%TD*%
%TO.C,REF\u002A\u002A*%
X68710000Y-93050000D03*
%TD*%
%TO.C,REF\u002A\u002A*%
X68710000Y-92284000D03*
%TD*%
%TO.C,REF\u002A\u002A*%
X68710000Y-90752000D03*
%TD*%
%TO.C,REF\u002A\u002A*%
X68710000Y-91518000D03*
%TD*%
%TO.C,REF\u002A\u002A*%
X135080000Y-89280000D03*
%TD*%
%TO.C,REF\u002A\u002A*%
X135080000Y-90046000D03*
%TD*%
%TO.C,REF\u002A\u002A*%
X135080000Y-93110000D03*
%TD*%
%TO.C,REF\u002A\u002A*%
X135080000Y-92344000D03*
%TD*%
%TO.C,REF\u002A\u002A*%
X135080000Y-90812000D03*
%TD*%
%TO.C,REF\u002A\u002A*%
X135080000Y-91578000D03*
%TD*%
%TO.C,REF\u002A\u002A*%
X135080000Y-30820000D03*
%TD*%
%TO.C,REF\u002A\u002A*%
X135080000Y-31586000D03*
%TD*%
%TO.C,REF\u002A\u002A*%
X135080000Y-34650000D03*
%TD*%
%TO.C,REF\u002A\u002A*%
X135080000Y-33884000D03*
%TD*%
%TO.C,REF\u002A\u002A*%
X135080000Y-32352000D03*
%TD*%
%TO.C,REF\u002A\u002A*%
X135080000Y-33118000D03*
%TD*%
%TO.C,REF\u002A\u002A*%
X68700000Y-30810000D03*
%TD*%
%TO.C,REF\u002A\u002A*%
X68700000Y-31576000D03*
%TD*%
%TO.C,REF\u002A\u002A*%
X68700000Y-34640000D03*
%TD*%
%TO.C,REF\u002A\u002A*%
X68700000Y-33874000D03*
%TD*%
%TO.C,REF\u002A\u002A*%
X68700000Y-32342000D03*
%TD*%
%TO.C,REF\u002A\u002A*%
X68700000Y-33108000D03*
%TD*%
%TO.C,REF\u002A\u002A*%
X140718000Y-37960000D03*
%TD*%
%TO.C,REF\u002A\u002A*%
X141484000Y-37960000D03*
%TD*%
%TO.C,REF\u002A\u002A*%
X142250000Y-37960000D03*
%TD*%
%TO.C,REF\u002A\u002A*%
X138420000Y-37960000D03*
%TD*%
%TO.C,REF\u002A\u002A*%
X139186000Y-37960000D03*
%TD*%
%TO.C,REF\u002A\u002A*%
X139952000Y-37960000D03*
%TD*%
%TO.C,REF\u002A\u002A*%
X140738000Y-85930000D03*
%TD*%
%TO.C,REF\u002A\u002A*%
X141504000Y-85930000D03*
%TD*%
%TO.C,REF\u002A\u002A*%
X142270000Y-85930000D03*
%TD*%
%TO.C,REF\u002A\u002A*%
X138440000Y-85930000D03*
%TD*%
%TO.C,REF\u002A\u002A*%
X139206000Y-85930000D03*
%TD*%
%TO.C,REF\u002A\u002A*%
X139972000Y-85930000D03*
%TD*%
%TO.C,REF\u002A\u002A*%
X63828000Y-85920000D03*
%TD*%
%TO.C,REF\u002A\u002A*%
X64594000Y-85920000D03*
%TD*%
%TO.C,REF\u002A\u002A*%
X65360000Y-85920000D03*
%TD*%
%TO.C,REF\u002A\u002A*%
X61530000Y-85920000D03*
%TD*%
%TO.C,REF\u002A\u002A*%
X62296000Y-85920000D03*
%TD*%
%TO.C,REF\u002A\u002A*%
X63062000Y-85920000D03*
%TD*%
%TO.C,REF\u002A\u002A*%
X61560000Y-37960000D03*
%TD*%
%TO.C,REF\u002A\u002A*%
X62326000Y-37960000D03*
%TD*%
%TO.C,REF\u002A\u002A*%
X63092000Y-37960000D03*
%TD*%
%TO.C,REF\u002A\u002A*%
X63858000Y-37960000D03*
%TD*%
%TO.C,REF\u002A\u002A*%
X64624000Y-37960000D03*
%TD*%
%TO.C,REF\u002A\u002A*%
X65390000Y-37960000D03*
%TD*%
D13*
%TO.C,SW1*%
X99285000Y-49230000D03*
X95235000Y-49230000D03*
%TD*%
D10*
%TO.C,J1*%
X79020000Y-50490000D03*
X87660000Y-46690000D03*
X79020000Y-46690000D03*
X87660000Y-50490000D03*
%TD*%
D12*
%TO.C,J3*%
X98850000Y-39830000D03*
D11*
X98850000Y-40830000D03*
X98850000Y-41830000D03*
X98850000Y-42830000D03*
X98850000Y-43830000D03*
%TD*%
D14*
%TO.C,REF\u002A\u002A*%
X69720000Y-39050000D03*
%TD*%
M02*
