%TF.GenerationSoftware,KiCad,Pcbnew,(5.1.9)-1*%
%TF.CreationDate,2021-11-10T23:35:07-06:00*%
%TF.ProjectId,CC_BT_PANELIZED,43435f42-545f-4504-914e-454c495a4544,000*%
%TF.SameCoordinates,Original*%
%TF.FileFunction,Soldermask,Top*%
%TF.FilePolarity,Negative*%
%FSLAX46Y46*%
G04 Gerber Fmt 4.6, Leading zero omitted, Abs format (unit mm)*
G04 Created by KiCad (PCBNEW (5.1.9)-1) date 2021-11-10 23:35:07*
%MOMM*%
%LPD*%
G01*
G04 APERTURE LIST*
%ADD10R,0.600000X0.490000*%
%ADD11R,0.550000X0.500000*%
%ADD12R,0.500000X0.550000*%
%ADD13R,0.650000X0.900000*%
%ADD14R,0.350000X0.400000*%
%ADD15R,0.250000X1.000000*%
%ADD16R,0.700000X1.150000*%
%ADD17R,0.800000X1.150000*%
%ADD18R,0.900000X1.150000*%
%ADD19O,1.000000X1.700000*%
%ADD20O,0.850000X0.850000*%
%ADD21R,0.850000X0.850000*%
%ADD22R,0.838200X0.406400*%
%ADD23C,0.500000*%
%ADD24R,0.690000X1.190000*%
%ADD25R,1.000000X0.500000*%
%ADD26O,0.700000X0.950000*%
%ADD27R,1.250000X0.950000*%
%ADD28R,2.500000X1.750000*%
%ADD29R,0.400000X0.800000*%
%ADD30R,1.100000X1.900000*%
%ADD31C,1.000000*%
%ADD32R,0.500000X0.500000*%
%ADD33R,0.420000X0.700000*%
%ADD34R,0.800000X0.300000*%
%ADD35R,0.800000X0.400000*%
%ADD36R,0.200000X0.850000*%
%ADD37C,2.000000*%
G04 APERTURE END LIST*
D10*
%TO.C,R9*%
X113490000Y-73057000D03*
X113490000Y-72143000D03*
%TD*%
%TO.C,R9*%
X78990000Y-73057000D03*
X78990000Y-72143000D03*
%TD*%
%TO.C,R9*%
X113490000Y-56307000D03*
X113490000Y-55393000D03*
%TD*%
%TO.C,R9*%
X78990000Y-56307000D03*
X78990000Y-55393000D03*
%TD*%
%TO.C,R9*%
X113490000Y-39557000D03*
X113490000Y-38643000D03*
%TD*%
%TO.C,R5*%
X126440000Y-84857000D03*
X126440000Y-83943000D03*
%TD*%
%TO.C,R5*%
X91940000Y-84857000D03*
X91940000Y-83943000D03*
%TD*%
%TO.C,R5*%
X126440000Y-68107000D03*
X126440000Y-67193000D03*
%TD*%
%TO.C,R5*%
X91940000Y-68107000D03*
X91940000Y-67193000D03*
%TD*%
%TO.C,R5*%
X126440000Y-51357000D03*
X126440000Y-50443000D03*
%TD*%
%TO.C,R11*%
X121330000Y-72143000D03*
X121330000Y-73057000D03*
%TD*%
%TO.C,R11*%
X86830000Y-72143000D03*
X86830000Y-73057000D03*
%TD*%
%TO.C,R11*%
X121330000Y-55393000D03*
X121330000Y-56307000D03*
%TD*%
%TO.C,R11*%
X86830000Y-55393000D03*
X86830000Y-56307000D03*
%TD*%
%TO.C,R11*%
X121330000Y-38643000D03*
X121330000Y-39557000D03*
%TD*%
D11*
%TO.C,C5*%
X113320000Y-78420000D03*
X113320000Y-77440000D03*
%TD*%
%TO.C,C5*%
X78820000Y-78420000D03*
X78820000Y-77440000D03*
%TD*%
%TO.C,C5*%
X113320000Y-61670000D03*
X113320000Y-60690000D03*
%TD*%
%TO.C,C5*%
X78820000Y-61670000D03*
X78820000Y-60690000D03*
%TD*%
%TO.C,C5*%
X113320000Y-44920000D03*
X113320000Y-43940000D03*
%TD*%
%TO.C,C2*%
X118980000Y-72150000D03*
X118980000Y-73130000D03*
%TD*%
%TO.C,C2*%
X84480000Y-72150000D03*
X84480000Y-73130000D03*
%TD*%
%TO.C,C2*%
X118980000Y-55400000D03*
X118980000Y-56380000D03*
%TD*%
%TO.C,C2*%
X84480000Y-55400000D03*
X84480000Y-56380000D03*
%TD*%
%TO.C,C2*%
X118980000Y-38650000D03*
X118980000Y-39630000D03*
%TD*%
D12*
%TO.C,C9*%
X108600000Y-75510000D03*
X107620000Y-75510000D03*
%TD*%
%TO.C,C9*%
X74100000Y-75510000D03*
X73120000Y-75510000D03*
%TD*%
%TO.C,C9*%
X108600000Y-58760000D03*
X107620000Y-58760000D03*
%TD*%
%TO.C,C9*%
X74100000Y-58760000D03*
X73120000Y-58760000D03*
%TD*%
%TO.C,C9*%
X108600000Y-42010000D03*
X107620000Y-42010000D03*
%TD*%
D10*
%TO.C,R2*%
X117680000Y-77433000D03*
X117680000Y-78347000D03*
%TD*%
%TO.C,R2*%
X83180000Y-77433000D03*
X83180000Y-78347000D03*
%TD*%
%TO.C,R2*%
X117680000Y-60683000D03*
X117680000Y-61597000D03*
%TD*%
%TO.C,R2*%
X83180000Y-60683000D03*
X83180000Y-61597000D03*
%TD*%
%TO.C,R2*%
X117680000Y-43933000D03*
X117680000Y-44847000D03*
%TD*%
%TO.C,R17*%
X129300000Y-78663000D03*
X129300000Y-79577000D03*
%TD*%
%TO.C,R17*%
X94800000Y-78663000D03*
X94800000Y-79577000D03*
%TD*%
%TO.C,R17*%
X129300000Y-61913000D03*
X129300000Y-62827000D03*
%TD*%
%TO.C,R17*%
X94800000Y-61913000D03*
X94800000Y-62827000D03*
%TD*%
%TO.C,R17*%
X129300000Y-45163000D03*
X129300000Y-46077000D03*
%TD*%
%TO.C,R10*%
X114590000Y-72143000D03*
X114590000Y-73057000D03*
%TD*%
%TO.C,R10*%
X80090000Y-72143000D03*
X80090000Y-73057000D03*
%TD*%
%TO.C,R10*%
X114590000Y-55393000D03*
X114590000Y-56307000D03*
%TD*%
%TO.C,R10*%
X80090000Y-55393000D03*
X80090000Y-56307000D03*
%TD*%
%TO.C,R10*%
X114590000Y-38643000D03*
X114590000Y-39557000D03*
%TD*%
%TO.C,R18*%
X130400000Y-79577000D03*
X130400000Y-78663000D03*
%TD*%
%TO.C,R18*%
X95900000Y-79577000D03*
X95900000Y-78663000D03*
%TD*%
%TO.C,R18*%
X130400000Y-62827000D03*
X130400000Y-61913000D03*
%TD*%
%TO.C,R18*%
X95900000Y-62827000D03*
X95900000Y-61913000D03*
%TD*%
%TO.C,R18*%
X130400000Y-46077000D03*
X130400000Y-45163000D03*
%TD*%
%TO.C,R23*%
X125730000Y-72143000D03*
X125730000Y-73057000D03*
%TD*%
%TO.C,R23*%
X91230000Y-72143000D03*
X91230000Y-73057000D03*
%TD*%
%TO.C,R23*%
X125730000Y-55393000D03*
X125730000Y-56307000D03*
%TD*%
%TO.C,R23*%
X91230000Y-55393000D03*
X91230000Y-56307000D03*
%TD*%
%TO.C,R23*%
X125730000Y-38643000D03*
X125730000Y-39557000D03*
%TD*%
%TO.C,R21*%
X112390000Y-72143000D03*
X112390000Y-73057000D03*
%TD*%
%TO.C,R21*%
X77890000Y-72143000D03*
X77890000Y-73057000D03*
%TD*%
%TO.C,R21*%
X112390000Y-55393000D03*
X112390000Y-56307000D03*
%TD*%
%TO.C,R21*%
X77890000Y-55393000D03*
X77890000Y-56307000D03*
%TD*%
%TO.C,R21*%
X112390000Y-38643000D03*
X112390000Y-39557000D03*
%TD*%
D12*
%TO.C,C8*%
X109660000Y-75510000D03*
X110640000Y-75510000D03*
%TD*%
%TO.C,C8*%
X75160000Y-75510000D03*
X76140000Y-75510000D03*
%TD*%
%TO.C,C8*%
X109660000Y-58760000D03*
X110640000Y-58760000D03*
%TD*%
%TO.C,C8*%
X75160000Y-58760000D03*
X76140000Y-58760000D03*
%TD*%
%TO.C,C8*%
X109660000Y-42010000D03*
X110640000Y-42010000D03*
%TD*%
D10*
%TO.C,R22*%
X124630000Y-72143000D03*
X124630000Y-73057000D03*
%TD*%
%TO.C,R22*%
X90130000Y-72143000D03*
X90130000Y-73057000D03*
%TD*%
%TO.C,R22*%
X124630000Y-55393000D03*
X124630000Y-56307000D03*
%TD*%
%TO.C,R22*%
X90130000Y-55393000D03*
X90130000Y-56307000D03*
%TD*%
%TO.C,R22*%
X124630000Y-38643000D03*
X124630000Y-39557000D03*
%TD*%
D13*
%TO.C,U5*%
X119745000Y-75170000D03*
X120695000Y-75170000D03*
D14*
X120220000Y-74260000D03*
X120870000Y-74260000D03*
X119570000Y-74260000D03*
X119570000Y-76080000D03*
X120220000Y-76080000D03*
X120870000Y-76080000D03*
%TD*%
D13*
%TO.C,U5*%
X85245000Y-75170000D03*
X86195000Y-75170000D03*
D14*
X85720000Y-74260000D03*
X86370000Y-74260000D03*
X85070000Y-74260000D03*
X85070000Y-76080000D03*
X85720000Y-76080000D03*
X86370000Y-76080000D03*
%TD*%
D13*
%TO.C,U5*%
X119745000Y-58420000D03*
X120695000Y-58420000D03*
D14*
X120220000Y-57510000D03*
X120870000Y-57510000D03*
X119570000Y-57510000D03*
X119570000Y-59330000D03*
X120220000Y-59330000D03*
X120870000Y-59330000D03*
%TD*%
D13*
%TO.C,U5*%
X85245000Y-58420000D03*
X86195000Y-58420000D03*
D14*
X85720000Y-57510000D03*
X86370000Y-57510000D03*
X85070000Y-57510000D03*
X85070000Y-59330000D03*
X85720000Y-59330000D03*
X86370000Y-59330000D03*
%TD*%
D13*
%TO.C,U5*%
X119745000Y-41670000D03*
X120695000Y-41670000D03*
D14*
X120220000Y-40760000D03*
X120870000Y-40760000D03*
X119570000Y-40760000D03*
X119570000Y-42580000D03*
X120220000Y-42580000D03*
X120870000Y-42580000D03*
%TD*%
D10*
%TO.C,R20*%
X115690000Y-73057000D03*
X115690000Y-72143000D03*
%TD*%
%TO.C,R20*%
X81190000Y-73057000D03*
X81190000Y-72143000D03*
%TD*%
%TO.C,R20*%
X115690000Y-56307000D03*
X115690000Y-55393000D03*
%TD*%
%TO.C,R20*%
X81190000Y-56307000D03*
X81190000Y-55393000D03*
%TD*%
%TO.C,R20*%
X115690000Y-39557000D03*
X115690000Y-38643000D03*
%TD*%
D11*
%TO.C,C7*%
X115480000Y-78420000D03*
X115480000Y-77440000D03*
%TD*%
%TO.C,C7*%
X80980000Y-78420000D03*
X80980000Y-77440000D03*
%TD*%
%TO.C,C7*%
X115480000Y-61670000D03*
X115480000Y-60690000D03*
%TD*%
%TO.C,C7*%
X80980000Y-61670000D03*
X80980000Y-60690000D03*
%TD*%
%TO.C,C7*%
X115480000Y-44920000D03*
X115480000Y-43940000D03*
%TD*%
D10*
%TO.C,R7*%
X127100000Y-78663000D03*
X127100000Y-79577000D03*
%TD*%
%TO.C,R7*%
X92600000Y-78663000D03*
X92600000Y-79577000D03*
%TD*%
%TO.C,R7*%
X127100000Y-61913000D03*
X127100000Y-62827000D03*
%TD*%
%TO.C,R7*%
X92600000Y-61913000D03*
X92600000Y-62827000D03*
%TD*%
%TO.C,R7*%
X127100000Y-45163000D03*
X127100000Y-46077000D03*
%TD*%
%TO.C,R4*%
X117890000Y-73057000D03*
X117890000Y-72143000D03*
%TD*%
%TO.C,R4*%
X83390000Y-73057000D03*
X83390000Y-72143000D03*
%TD*%
%TO.C,R4*%
X117890000Y-56307000D03*
X117890000Y-55393000D03*
%TD*%
%TO.C,R4*%
X83390000Y-56307000D03*
X83390000Y-55393000D03*
%TD*%
%TO.C,R4*%
X117890000Y-39557000D03*
X117890000Y-38643000D03*
%TD*%
%TO.C,R8*%
X124330000Y-84857000D03*
X124330000Y-83943000D03*
%TD*%
%TO.C,R8*%
X89830000Y-84857000D03*
X89830000Y-83943000D03*
%TD*%
%TO.C,R8*%
X124330000Y-68107000D03*
X124330000Y-67193000D03*
%TD*%
%TO.C,R8*%
X89830000Y-68107000D03*
X89830000Y-67193000D03*
%TD*%
%TO.C,R8*%
X124330000Y-51357000D03*
X124330000Y-50443000D03*
%TD*%
D11*
%TO.C,C6*%
X114400000Y-78420000D03*
X114400000Y-77440000D03*
%TD*%
%TO.C,C6*%
X79900000Y-78420000D03*
X79900000Y-77440000D03*
%TD*%
%TO.C,C6*%
X114400000Y-61670000D03*
X114400000Y-60690000D03*
%TD*%
%TO.C,C6*%
X79900000Y-61670000D03*
X79900000Y-60690000D03*
%TD*%
%TO.C,C6*%
X114400000Y-44920000D03*
X114400000Y-43940000D03*
%TD*%
D10*
%TO.C,R1*%
X116580000Y-77433000D03*
X116580000Y-78347000D03*
%TD*%
%TO.C,R1*%
X82080000Y-77433000D03*
X82080000Y-78347000D03*
%TD*%
%TO.C,R1*%
X116580000Y-60683000D03*
X116580000Y-61597000D03*
%TD*%
%TO.C,R1*%
X82080000Y-60683000D03*
X82080000Y-61597000D03*
%TD*%
%TO.C,R1*%
X116580000Y-43933000D03*
X116580000Y-44847000D03*
%TD*%
D11*
%TO.C,C1*%
X118770000Y-78420000D03*
X118770000Y-77440000D03*
%TD*%
%TO.C,C1*%
X84270000Y-78420000D03*
X84270000Y-77440000D03*
%TD*%
%TO.C,C1*%
X118770000Y-61670000D03*
X118770000Y-60690000D03*
%TD*%
%TO.C,C1*%
X84270000Y-61670000D03*
X84270000Y-60690000D03*
%TD*%
%TO.C,C1*%
X118770000Y-44920000D03*
X118770000Y-43940000D03*
%TD*%
%TO.C,C3*%
X127100000Y-81100000D03*
X127100000Y-82080000D03*
%TD*%
%TO.C,C3*%
X92600000Y-81100000D03*
X92600000Y-82080000D03*
%TD*%
%TO.C,C3*%
X127100000Y-64350000D03*
X127100000Y-65330000D03*
%TD*%
%TO.C,C3*%
X92600000Y-64350000D03*
X92600000Y-65330000D03*
%TD*%
%TO.C,C3*%
X127100000Y-47600000D03*
X127100000Y-48580000D03*
%TD*%
D10*
%TO.C,R24*%
X120230000Y-72143000D03*
X120230000Y-73057000D03*
%TD*%
%TO.C,R24*%
X85730000Y-72143000D03*
X85730000Y-73057000D03*
%TD*%
%TO.C,R24*%
X120230000Y-55393000D03*
X120230000Y-56307000D03*
%TD*%
%TO.C,R24*%
X85730000Y-55393000D03*
X85730000Y-56307000D03*
%TD*%
%TO.C,R24*%
X120230000Y-38643000D03*
X120230000Y-39557000D03*
%TD*%
D13*
%TO.C,U7*%
X124785000Y-75170000D03*
X125735000Y-75170000D03*
D14*
X125260000Y-74260000D03*
X125910000Y-74260000D03*
X124610000Y-74260000D03*
X124610000Y-76080000D03*
X125260000Y-76080000D03*
X125910000Y-76080000D03*
%TD*%
D13*
%TO.C,U7*%
X90285000Y-75170000D03*
X91235000Y-75170000D03*
D14*
X90760000Y-74260000D03*
X91410000Y-74260000D03*
X90110000Y-74260000D03*
X90110000Y-76080000D03*
X90760000Y-76080000D03*
X91410000Y-76080000D03*
%TD*%
D13*
%TO.C,U7*%
X124785000Y-58420000D03*
X125735000Y-58420000D03*
D14*
X125260000Y-57510000D03*
X125910000Y-57510000D03*
X124610000Y-57510000D03*
X124610000Y-59330000D03*
X125260000Y-59330000D03*
X125910000Y-59330000D03*
%TD*%
D13*
%TO.C,U7*%
X90285000Y-58420000D03*
X91235000Y-58420000D03*
D14*
X90760000Y-57510000D03*
X91410000Y-57510000D03*
X90110000Y-57510000D03*
X90110000Y-59330000D03*
X90760000Y-59330000D03*
X91410000Y-59330000D03*
%TD*%
D13*
%TO.C,U7*%
X124785000Y-41670000D03*
X125735000Y-41670000D03*
D14*
X125260000Y-40760000D03*
X125910000Y-40760000D03*
X124610000Y-40760000D03*
X124610000Y-42580000D03*
X125260000Y-42580000D03*
X125910000Y-42580000D03*
%TD*%
D10*
%TO.C,R16*%
X122430000Y-72143000D03*
X122430000Y-73057000D03*
%TD*%
%TO.C,R16*%
X87930000Y-72143000D03*
X87930000Y-73057000D03*
%TD*%
%TO.C,R16*%
X122430000Y-55393000D03*
X122430000Y-56307000D03*
%TD*%
%TO.C,R16*%
X87930000Y-55393000D03*
X87930000Y-56307000D03*
%TD*%
%TO.C,R16*%
X122430000Y-38643000D03*
X122430000Y-39557000D03*
%TD*%
%TO.C,R12*%
X124880000Y-78347000D03*
X124880000Y-77433000D03*
%TD*%
%TO.C,R12*%
X90380000Y-78347000D03*
X90380000Y-77433000D03*
%TD*%
%TO.C,R12*%
X124880000Y-61597000D03*
X124880000Y-60683000D03*
%TD*%
%TO.C,R12*%
X90380000Y-61597000D03*
X90380000Y-60683000D03*
%TD*%
%TO.C,R12*%
X124880000Y-44847000D03*
X124880000Y-43933000D03*
%TD*%
%TO.C,R19*%
X128203333Y-81093000D03*
X128203333Y-82007000D03*
%TD*%
%TO.C,R19*%
X93703333Y-81093000D03*
X93703333Y-82007000D03*
%TD*%
%TO.C,R19*%
X128203333Y-64343000D03*
X128203333Y-65257000D03*
%TD*%
%TO.C,R19*%
X93703333Y-64343000D03*
X93703333Y-65257000D03*
%TD*%
%TO.C,R19*%
X128203333Y-47593000D03*
X128203333Y-48507000D03*
%TD*%
D12*
%TO.C,C10*%
X104190000Y-75510000D03*
X105170000Y-75510000D03*
%TD*%
%TO.C,C10*%
X69690000Y-75510000D03*
X70670000Y-75510000D03*
%TD*%
%TO.C,C10*%
X104190000Y-58760000D03*
X105170000Y-58760000D03*
%TD*%
%TO.C,C10*%
X69690000Y-58760000D03*
X70670000Y-58760000D03*
%TD*%
%TO.C,C10*%
X104190000Y-42010000D03*
X105170000Y-42010000D03*
%TD*%
D11*
%TO.C,C4*%
X128203333Y-78670000D03*
X128203333Y-79650000D03*
%TD*%
%TO.C,C4*%
X93703333Y-78670000D03*
X93703333Y-79650000D03*
%TD*%
%TO.C,C4*%
X128203333Y-61920000D03*
X128203333Y-62900000D03*
%TD*%
%TO.C,C4*%
X93703333Y-61920000D03*
X93703333Y-62900000D03*
%TD*%
%TO.C,C4*%
X128203333Y-45170000D03*
X128203333Y-46150000D03*
%TD*%
D10*
%TO.C,R6*%
X125980000Y-78347000D03*
X125980000Y-77433000D03*
%TD*%
%TO.C,R6*%
X91480000Y-78347000D03*
X91480000Y-77433000D03*
%TD*%
%TO.C,R6*%
X125980000Y-61597000D03*
X125980000Y-60683000D03*
%TD*%
%TO.C,R6*%
X91480000Y-61597000D03*
X91480000Y-60683000D03*
%TD*%
%TO.C,R6*%
X125980000Y-44847000D03*
X125980000Y-43933000D03*
%TD*%
%TO.C,R3*%
X116790000Y-73057000D03*
X116790000Y-72143000D03*
%TD*%
%TO.C,R3*%
X82290000Y-73057000D03*
X82290000Y-72143000D03*
%TD*%
%TO.C,R3*%
X116790000Y-56307000D03*
X116790000Y-55393000D03*
%TD*%
%TO.C,R3*%
X82290000Y-56307000D03*
X82290000Y-55393000D03*
%TD*%
%TO.C,R3*%
X116790000Y-39557000D03*
X116790000Y-38643000D03*
%TD*%
%TO.C,R15*%
X122680000Y-78347000D03*
X122680000Y-77433000D03*
%TD*%
%TO.C,R15*%
X88180000Y-78347000D03*
X88180000Y-77433000D03*
%TD*%
%TO.C,R15*%
X122680000Y-61597000D03*
X122680000Y-60683000D03*
%TD*%
%TO.C,R15*%
X88180000Y-61597000D03*
X88180000Y-60683000D03*
%TD*%
%TO.C,R15*%
X122680000Y-44847000D03*
X122680000Y-43933000D03*
%TD*%
D15*
%TO.C,U3*%
X113260000Y-76050000D03*
X113760000Y-76050000D03*
X114260000Y-76050000D03*
X114760000Y-76050000D03*
X115260000Y-76050000D03*
X115760000Y-76050000D03*
X115760000Y-74350000D03*
X115260000Y-74350000D03*
X114760000Y-74350000D03*
X114260000Y-74350000D03*
X113760000Y-74350000D03*
X113260000Y-74350000D03*
%TD*%
%TO.C,U3*%
X78760000Y-76050000D03*
X79260000Y-76050000D03*
X79760000Y-76050000D03*
X80260000Y-76050000D03*
X80760000Y-76050000D03*
X81260000Y-76050000D03*
X81260000Y-74350000D03*
X80760000Y-74350000D03*
X80260000Y-74350000D03*
X79760000Y-74350000D03*
X79260000Y-74350000D03*
X78760000Y-74350000D03*
%TD*%
%TO.C,U3*%
X113260000Y-59300000D03*
X113760000Y-59300000D03*
X114260000Y-59300000D03*
X114760000Y-59300000D03*
X115260000Y-59300000D03*
X115760000Y-59300000D03*
X115760000Y-57600000D03*
X115260000Y-57600000D03*
X114760000Y-57600000D03*
X114260000Y-57600000D03*
X113760000Y-57600000D03*
X113260000Y-57600000D03*
%TD*%
%TO.C,U3*%
X78760000Y-59300000D03*
X79260000Y-59300000D03*
X79760000Y-59300000D03*
X80260000Y-59300000D03*
X80760000Y-59300000D03*
X81260000Y-59300000D03*
X81260000Y-57600000D03*
X80760000Y-57600000D03*
X80260000Y-57600000D03*
X79760000Y-57600000D03*
X79260000Y-57600000D03*
X78760000Y-57600000D03*
%TD*%
%TO.C,U3*%
X113260000Y-42550000D03*
X113760000Y-42550000D03*
X114260000Y-42550000D03*
X114760000Y-42550000D03*
X115260000Y-42550000D03*
X115760000Y-42550000D03*
X115760000Y-40850000D03*
X115260000Y-40850000D03*
X114760000Y-40850000D03*
X114260000Y-40850000D03*
X113760000Y-40850000D03*
X113260000Y-40850000D03*
%TD*%
D16*
%TO.C,J1*%
X118340000Y-80190000D03*
X117340000Y-80190000D03*
D17*
X116320000Y-80190000D03*
X119360000Y-80190000D03*
D18*
X115090000Y-80190000D03*
X120590000Y-80190000D03*
D19*
X122160000Y-83990000D03*
X113520000Y-80190000D03*
X122160000Y-80190000D03*
X113520000Y-83990000D03*
%TD*%
D16*
%TO.C,J1*%
X83840000Y-80190000D03*
X82840000Y-80190000D03*
D17*
X81820000Y-80190000D03*
X84860000Y-80190000D03*
D18*
X80590000Y-80190000D03*
X86090000Y-80190000D03*
D19*
X87660000Y-83990000D03*
X79020000Y-80190000D03*
X87660000Y-80190000D03*
X79020000Y-83990000D03*
%TD*%
D16*
%TO.C,J1*%
X118340000Y-63440000D03*
X117340000Y-63440000D03*
D17*
X116320000Y-63440000D03*
X119360000Y-63440000D03*
D18*
X115090000Y-63440000D03*
X120590000Y-63440000D03*
D19*
X122160000Y-67240000D03*
X113520000Y-63440000D03*
X122160000Y-63440000D03*
X113520000Y-67240000D03*
%TD*%
D16*
%TO.C,J1*%
X83840000Y-63440000D03*
X82840000Y-63440000D03*
D17*
X81820000Y-63440000D03*
X84860000Y-63440000D03*
D18*
X80590000Y-63440000D03*
X86090000Y-63440000D03*
D19*
X87660000Y-67240000D03*
X79020000Y-63440000D03*
X87660000Y-63440000D03*
X79020000Y-67240000D03*
%TD*%
D16*
%TO.C,J1*%
X118340000Y-46690000D03*
X117340000Y-46690000D03*
D17*
X116320000Y-46690000D03*
X119360000Y-46690000D03*
D18*
X115090000Y-46690000D03*
X120590000Y-46690000D03*
D19*
X122160000Y-50490000D03*
X113520000Y-46690000D03*
X122160000Y-46690000D03*
X113520000Y-50490000D03*
%TD*%
D20*
%TO.C,J3*%
X133350000Y-77330000D03*
X133350000Y-76330000D03*
X133350000Y-75330000D03*
X133350000Y-74330000D03*
D21*
X133350000Y-73330000D03*
%TD*%
D20*
%TO.C,J3*%
X98850000Y-77330000D03*
X98850000Y-76330000D03*
X98850000Y-75330000D03*
X98850000Y-74330000D03*
D21*
X98850000Y-73330000D03*
%TD*%
D20*
%TO.C,J3*%
X133350000Y-60580000D03*
X133350000Y-59580000D03*
X133350000Y-58580000D03*
X133350000Y-57580000D03*
D21*
X133350000Y-56580000D03*
%TD*%
D20*
%TO.C,J3*%
X98850000Y-60580000D03*
X98850000Y-59580000D03*
X98850000Y-58580000D03*
X98850000Y-57580000D03*
D21*
X98850000Y-56580000D03*
%TD*%
D20*
%TO.C,J3*%
X133350000Y-43830000D03*
X133350000Y-42830000D03*
X133350000Y-41830000D03*
X133350000Y-40830000D03*
D21*
X133350000Y-39830000D03*
%TD*%
D22*
%TO.C,CR1*%
X121320000Y-78380700D03*
X121320000Y-77339300D03*
%TD*%
%TO.C,CR1*%
X86820000Y-78380700D03*
X86820000Y-77339300D03*
%TD*%
%TO.C,CR1*%
X121320000Y-61630700D03*
X121320000Y-60589300D03*
%TD*%
%TO.C,CR1*%
X86820000Y-61630700D03*
X86820000Y-60589300D03*
%TD*%
%TO.C,CR1*%
X121320000Y-44880700D03*
X121320000Y-43839300D03*
%TD*%
D23*
%TO.C,U4*%
X108391000Y-78860000D03*
X108391000Y-80060000D03*
X108391000Y-81260000D03*
X108391000Y-82460000D03*
X111991000Y-80060000D03*
X111991000Y-81260000D03*
D24*
X104192000Y-76890000D03*
X105292000Y-76890000D03*
X106392000Y-76890000D03*
X107492000Y-76890000D03*
X108592000Y-76890000D03*
X109692000Y-76890000D03*
X110792000Y-76890000D03*
X111892000Y-76890000D03*
X111892000Y-84530000D03*
X110792000Y-84530000D03*
X109692000Y-84530000D03*
X108592000Y-84530000D03*
X107492000Y-84530000D03*
X106392000Y-84530000D03*
X105292000Y-84530000D03*
X104192000Y-84530000D03*
%TD*%
D23*
%TO.C,U4*%
X73891000Y-78860000D03*
X73891000Y-80060000D03*
X73891000Y-81260000D03*
X73891000Y-82460000D03*
X77491000Y-80060000D03*
X77491000Y-81260000D03*
D24*
X69692000Y-76890000D03*
X70792000Y-76890000D03*
X71892000Y-76890000D03*
X72992000Y-76890000D03*
X74092000Y-76890000D03*
X75192000Y-76890000D03*
X76292000Y-76890000D03*
X77392000Y-76890000D03*
X77392000Y-84530000D03*
X76292000Y-84530000D03*
X75192000Y-84530000D03*
X74092000Y-84530000D03*
X72992000Y-84530000D03*
X71892000Y-84530000D03*
X70792000Y-84530000D03*
X69692000Y-84530000D03*
%TD*%
D23*
%TO.C,U4*%
X108391000Y-62110000D03*
X108391000Y-63310000D03*
X108391000Y-64510000D03*
X108391000Y-65710000D03*
X111991000Y-63310000D03*
X111991000Y-64510000D03*
D24*
X104192000Y-60140000D03*
X105292000Y-60140000D03*
X106392000Y-60140000D03*
X107492000Y-60140000D03*
X108592000Y-60140000D03*
X109692000Y-60140000D03*
X110792000Y-60140000D03*
X111892000Y-60140000D03*
X111892000Y-67780000D03*
X110792000Y-67780000D03*
X109692000Y-67780000D03*
X108592000Y-67780000D03*
X107492000Y-67780000D03*
X106392000Y-67780000D03*
X105292000Y-67780000D03*
X104192000Y-67780000D03*
%TD*%
D23*
%TO.C,U4*%
X73891000Y-62110000D03*
X73891000Y-63310000D03*
X73891000Y-64510000D03*
X73891000Y-65710000D03*
X77491000Y-63310000D03*
X77491000Y-64510000D03*
D24*
X69692000Y-60140000D03*
X70792000Y-60140000D03*
X71892000Y-60140000D03*
X72992000Y-60140000D03*
X74092000Y-60140000D03*
X75192000Y-60140000D03*
X76292000Y-60140000D03*
X77392000Y-60140000D03*
X77392000Y-67780000D03*
X76292000Y-67780000D03*
X75192000Y-67780000D03*
X74092000Y-67780000D03*
X72992000Y-67780000D03*
X71892000Y-67780000D03*
X70792000Y-67780000D03*
X69692000Y-67780000D03*
%TD*%
D23*
%TO.C,U4*%
X108391000Y-45360000D03*
X108391000Y-46560000D03*
X108391000Y-47760000D03*
X108391000Y-48960000D03*
X111991000Y-46560000D03*
X111991000Y-47760000D03*
D24*
X104192000Y-43390000D03*
X105292000Y-43390000D03*
X106392000Y-43390000D03*
X107492000Y-43390000D03*
X108592000Y-43390000D03*
X109692000Y-43390000D03*
X110792000Y-43390000D03*
X111892000Y-43390000D03*
X111892000Y-51030000D03*
X110792000Y-51030000D03*
X109692000Y-51030000D03*
X108592000Y-51030000D03*
X107492000Y-51030000D03*
X106392000Y-51030000D03*
X105292000Y-51030000D03*
X104192000Y-51030000D03*
%TD*%
D25*
%TO.C,SW1*%
X131760000Y-80330000D03*
D26*
X129735000Y-82730000D03*
X133785000Y-82730000D03*
D27*
X133685000Y-81255000D03*
X129835000Y-81255000D03*
%TD*%
D25*
%TO.C,SW1*%
X97260000Y-80330000D03*
D26*
X95235000Y-82730000D03*
X99285000Y-82730000D03*
D27*
X99185000Y-81255000D03*
X95335000Y-81255000D03*
%TD*%
D25*
%TO.C,SW1*%
X131760000Y-63580000D03*
D26*
X129735000Y-65980000D03*
X133785000Y-65980000D03*
D27*
X133685000Y-64505000D03*
X129835000Y-64505000D03*
%TD*%
D25*
%TO.C,SW1*%
X97260000Y-63580000D03*
D26*
X95235000Y-65980000D03*
X99285000Y-65980000D03*
D27*
X99185000Y-64505000D03*
X95335000Y-64505000D03*
%TD*%
D25*
%TO.C,SW1*%
X131760000Y-46830000D03*
D26*
X129735000Y-49230000D03*
X133785000Y-49230000D03*
D27*
X133685000Y-47755000D03*
X129835000Y-47755000D03*
%TD*%
D28*
%TO.C,U2*%
X124740000Y-81220000D03*
D29*
X125690000Y-82720000D03*
X124740000Y-82720000D03*
X123790000Y-82720000D03*
X123790000Y-79720000D03*
X124740000Y-79720000D03*
X125690000Y-79720000D03*
%TD*%
D28*
%TO.C,U2*%
X90240000Y-81220000D03*
D29*
X91190000Y-82720000D03*
X90240000Y-82720000D03*
X89290000Y-82720000D03*
X89290000Y-79720000D03*
X90240000Y-79720000D03*
X91190000Y-79720000D03*
%TD*%
D28*
%TO.C,U2*%
X124740000Y-64470000D03*
D29*
X125690000Y-65970000D03*
X124740000Y-65970000D03*
X123790000Y-65970000D03*
X123790000Y-62970000D03*
X124740000Y-62970000D03*
X125690000Y-62970000D03*
%TD*%
D28*
%TO.C,U2*%
X90240000Y-64470000D03*
D29*
X91190000Y-65970000D03*
X90240000Y-65970000D03*
X89290000Y-65970000D03*
X89290000Y-62970000D03*
X90240000Y-62970000D03*
X91190000Y-62970000D03*
%TD*%
D28*
%TO.C,U2*%
X124740000Y-47720000D03*
D29*
X125690000Y-49220000D03*
X124740000Y-49220000D03*
X123790000Y-49220000D03*
X123790000Y-46220000D03*
X124740000Y-46220000D03*
X125690000Y-46220000D03*
%TD*%
D30*
%TO.C,Y1*%
X107880000Y-73770000D03*
X110380000Y-73770000D03*
%TD*%
%TO.C,Y1*%
X73380000Y-73770000D03*
X75880000Y-73770000D03*
%TD*%
%TO.C,Y1*%
X107880000Y-57020000D03*
X110380000Y-57020000D03*
%TD*%
%TO.C,Y1*%
X73380000Y-57020000D03*
X75880000Y-57020000D03*
%TD*%
%TO.C,Y1*%
X107880000Y-40270000D03*
X110380000Y-40270000D03*
%TD*%
D31*
%TO.C,REF\u002A\u002A*%
X104220000Y-72550000D03*
%TD*%
%TO.C,REF\u002A\u002A*%
X69720000Y-72550000D03*
%TD*%
%TO.C,REF\u002A\u002A*%
X104220000Y-55800000D03*
%TD*%
%TO.C,REF\u002A\u002A*%
X69720000Y-55800000D03*
%TD*%
%TO.C,REF\u002A\u002A*%
X104220000Y-39050000D03*
%TD*%
D10*
%TO.C,R13*%
X123530000Y-73057000D03*
X123530000Y-72143000D03*
%TD*%
%TO.C,R13*%
X89030000Y-73057000D03*
X89030000Y-72143000D03*
%TD*%
%TO.C,R13*%
X123530000Y-56307000D03*
X123530000Y-55393000D03*
%TD*%
%TO.C,R13*%
X89030000Y-56307000D03*
X89030000Y-55393000D03*
%TD*%
%TO.C,R13*%
X123530000Y-39557000D03*
X123530000Y-38643000D03*
%TD*%
D32*
%TO.C,D3*%
X125380000Y-84850000D03*
X125380000Y-83850000D03*
%TD*%
%TO.C,D3*%
X90880000Y-84850000D03*
X90880000Y-83850000D03*
%TD*%
%TO.C,D3*%
X125380000Y-68100000D03*
X125380000Y-67100000D03*
%TD*%
%TO.C,D3*%
X90880000Y-68100000D03*
X90880000Y-67100000D03*
%TD*%
%TO.C,D3*%
X125380000Y-51350000D03*
X125380000Y-50350000D03*
%TD*%
D33*
%TO.C,D1*%
X119910000Y-77135000D03*
X119910000Y-78585000D03*
%TD*%
%TO.C,D1*%
X85410000Y-77135000D03*
X85410000Y-78585000D03*
%TD*%
%TO.C,D1*%
X119910000Y-60385000D03*
X119910000Y-61835000D03*
%TD*%
%TO.C,D1*%
X85410000Y-60385000D03*
X85410000Y-61835000D03*
%TD*%
%TO.C,D1*%
X119910000Y-43635000D03*
X119910000Y-45085000D03*
%TD*%
D10*
%TO.C,R14*%
X123780000Y-77433000D03*
X123780000Y-78347000D03*
%TD*%
%TO.C,R14*%
X89280000Y-77433000D03*
X89280000Y-78347000D03*
%TD*%
%TO.C,R14*%
X123780000Y-60683000D03*
X123780000Y-61597000D03*
%TD*%
%TO.C,R14*%
X89280000Y-60683000D03*
X89280000Y-61597000D03*
%TD*%
%TO.C,R14*%
X123780000Y-43933000D03*
X123780000Y-44847000D03*
%TD*%
D32*
%TO.C,D2*%
X127500000Y-84850000D03*
X127500000Y-83850000D03*
%TD*%
%TO.C,D2*%
X93000000Y-84850000D03*
X93000000Y-83850000D03*
%TD*%
%TO.C,D2*%
X127500000Y-68100000D03*
X127500000Y-67100000D03*
%TD*%
%TO.C,D2*%
X93000000Y-68100000D03*
X93000000Y-67100000D03*
%TD*%
%TO.C,D2*%
X127500000Y-51350000D03*
X127500000Y-50350000D03*
%TD*%
D34*
%TO.C,J2*%
X127610000Y-73140000D03*
X127610000Y-73640000D03*
X127610000Y-74140000D03*
X127610000Y-74640000D03*
X127610000Y-75140000D03*
X127610000Y-75640000D03*
X127610000Y-76140000D03*
X127610000Y-76640000D03*
D35*
X130110000Y-72140000D03*
X130110000Y-77640000D03*
%TD*%
D34*
%TO.C,J2*%
X93110000Y-73140000D03*
X93110000Y-73640000D03*
X93110000Y-74140000D03*
X93110000Y-74640000D03*
X93110000Y-75140000D03*
X93110000Y-75640000D03*
X93110000Y-76140000D03*
X93110000Y-76640000D03*
D35*
X95610000Y-72140000D03*
X95610000Y-77640000D03*
%TD*%
D34*
%TO.C,J2*%
X127610000Y-56390000D03*
X127610000Y-56890000D03*
X127610000Y-57390000D03*
X127610000Y-57890000D03*
X127610000Y-58390000D03*
X127610000Y-58890000D03*
X127610000Y-59390000D03*
X127610000Y-59890000D03*
D35*
X130110000Y-55390000D03*
X130110000Y-60890000D03*
%TD*%
D34*
%TO.C,J2*%
X93110000Y-56390000D03*
X93110000Y-56890000D03*
X93110000Y-57390000D03*
X93110000Y-57890000D03*
X93110000Y-58390000D03*
X93110000Y-58890000D03*
X93110000Y-59390000D03*
X93110000Y-59890000D03*
D35*
X95610000Y-55390000D03*
X95610000Y-60890000D03*
%TD*%
D34*
%TO.C,J2*%
X127610000Y-39640000D03*
X127610000Y-40140000D03*
X127610000Y-40640000D03*
X127610000Y-41140000D03*
X127610000Y-41640000D03*
X127610000Y-42140000D03*
X127610000Y-42640000D03*
X127610000Y-43140000D03*
D35*
X130110000Y-38640000D03*
X130110000Y-44140000D03*
%TD*%
D36*
%TO.C,U1*%
X117990000Y-74640000D03*
X117590000Y-74640000D03*
X117190000Y-74640000D03*
X117190000Y-75740000D03*
X117590000Y-75740000D03*
X117990000Y-75740000D03*
%TD*%
%TO.C,U1*%
X83490000Y-74640000D03*
X83090000Y-74640000D03*
X82690000Y-74640000D03*
X82690000Y-75740000D03*
X83090000Y-75740000D03*
X83490000Y-75740000D03*
%TD*%
%TO.C,U1*%
X117990000Y-57890000D03*
X117590000Y-57890000D03*
X117190000Y-57890000D03*
X117190000Y-58990000D03*
X117590000Y-58990000D03*
X117990000Y-58990000D03*
%TD*%
%TO.C,U1*%
X83490000Y-57890000D03*
X83090000Y-57890000D03*
X82690000Y-57890000D03*
X82690000Y-58990000D03*
X83090000Y-58990000D03*
X83490000Y-58990000D03*
%TD*%
%TO.C,U1*%
X117990000Y-41140000D03*
X117590000Y-41140000D03*
X117190000Y-41140000D03*
X117190000Y-42240000D03*
X117590000Y-42240000D03*
X117990000Y-42240000D03*
%TD*%
D14*
%TO.C,U6*%
X123410000Y-76080000D03*
X122760000Y-76080000D03*
X122110000Y-76080000D03*
X122110000Y-74260000D03*
X123410000Y-74260000D03*
X122760000Y-74260000D03*
D13*
X123235000Y-75170000D03*
X122285000Y-75170000D03*
%TD*%
D14*
%TO.C,U6*%
X88910000Y-76080000D03*
X88260000Y-76080000D03*
X87610000Y-76080000D03*
X87610000Y-74260000D03*
X88910000Y-74260000D03*
X88260000Y-74260000D03*
D13*
X88735000Y-75170000D03*
X87785000Y-75170000D03*
%TD*%
D14*
%TO.C,U6*%
X123410000Y-59330000D03*
X122760000Y-59330000D03*
X122110000Y-59330000D03*
X122110000Y-57510000D03*
X123410000Y-57510000D03*
X122760000Y-57510000D03*
D13*
X123235000Y-58420000D03*
X122285000Y-58420000D03*
%TD*%
D14*
%TO.C,U6*%
X88910000Y-59330000D03*
X88260000Y-59330000D03*
X87610000Y-59330000D03*
X87610000Y-57510000D03*
X88910000Y-57510000D03*
X88260000Y-57510000D03*
D13*
X88735000Y-58420000D03*
X87785000Y-58420000D03*
%TD*%
D14*
%TO.C,U6*%
X123410000Y-42580000D03*
X122760000Y-42580000D03*
X122110000Y-42580000D03*
X122110000Y-40760000D03*
X123410000Y-40760000D03*
X122760000Y-40760000D03*
D13*
X123235000Y-41670000D03*
X122285000Y-41670000D03*
%TD*%
D23*
%TO.C,REF\u002A\u002A*%
X135175000Y-79340000D03*
%TD*%
%TO.C,REF\u002A\u002A*%
X135175000Y-62590000D03*
%TD*%
%TO.C,REF\u002A\u002A*%
X135175000Y-77810000D03*
%TD*%
%TO.C,REF\u002A\u002A*%
X135175000Y-61060000D03*
%TD*%
%TO.C,REF\u002A\u002A*%
X135175000Y-80870000D03*
%TD*%
%TO.C,REF\u002A\u002A*%
X135175000Y-64120000D03*
%TD*%
%TO.C,REF\u002A\u002A*%
X135175000Y-78575000D03*
%TD*%
%TO.C,REF\u002A\u002A*%
X135175000Y-61825000D03*
%TD*%
%TO.C,REF\u002A\u002A*%
X135175000Y-80105000D03*
%TD*%
%TO.C,REF\u002A\u002A*%
X135175000Y-63355000D03*
%TD*%
%TO.C,REF\u002A\u002A*%
X135175000Y-76280000D03*
%TD*%
%TO.C,REF\u002A\u002A*%
X135175000Y-59530000D03*
%TD*%
%TO.C,REF\u002A\u002A*%
X68625000Y-77045000D03*
%TD*%
%TO.C,REF\u002A\u002A*%
X68625000Y-60295000D03*
%TD*%
%TO.C,REF\u002A\u002A*%
X68625000Y-77810000D03*
%TD*%
%TO.C,REF\u002A\u002A*%
X68625000Y-61060000D03*
%TD*%
%TO.C,REF\u002A\u002A*%
X68625000Y-79340000D03*
%TD*%
%TO.C,REF\u002A\u002A*%
X68625000Y-62590000D03*
%TD*%
%TO.C,REF\u002A\u002A*%
X68625000Y-78575000D03*
%TD*%
%TO.C,REF\u002A\u002A*%
X68625000Y-61825000D03*
%TD*%
%TO.C,REF\u002A\u002A*%
X103125000Y-76280000D03*
%TD*%
%TO.C,REF\u002A\u002A*%
X103125000Y-59530000D03*
%TD*%
%TO.C,REF\u002A\u002A*%
X103125000Y-78575000D03*
%TD*%
%TO.C,REF\u002A\u002A*%
X103125000Y-61825000D03*
%TD*%
%TO.C,REF\u002A\u002A*%
X103125000Y-77045000D03*
%TD*%
%TO.C,REF\u002A\u002A*%
X103125000Y-60295000D03*
%TD*%
%TO.C,REF\u002A\u002A*%
X68625000Y-76280000D03*
%TD*%
%TO.C,REF\u002A\u002A*%
X68625000Y-59530000D03*
%TD*%
%TO.C,REF\u002A\u002A*%
X135175000Y-77045000D03*
%TD*%
%TO.C,REF\u002A\u002A*%
X135175000Y-60295000D03*
%TD*%
%TO.C,REF\u002A\u002A*%
X68625000Y-80105000D03*
%TD*%
%TO.C,REF\u002A\u002A*%
X68625000Y-63355000D03*
%TD*%
%TO.C,REF\u002A\u002A*%
X68625000Y-80870000D03*
%TD*%
%TO.C,REF\u002A\u002A*%
X68625000Y-64120000D03*
%TD*%
%TO.C,REF\u002A\u002A*%
X100675000Y-77045000D03*
%TD*%
%TO.C,REF\u002A\u002A*%
X100675000Y-60295000D03*
%TD*%
%TO.C,REF\u002A\u002A*%
X100675000Y-78575000D03*
%TD*%
%TO.C,REF\u002A\u002A*%
X100675000Y-61825000D03*
%TD*%
%TO.C,REF\u002A\u002A*%
X100675000Y-80105000D03*
%TD*%
%TO.C,REF\u002A\u002A*%
X100675000Y-63355000D03*
%TD*%
%TO.C,REF\u002A\u002A*%
X100675000Y-76280000D03*
%TD*%
%TO.C,REF\u002A\u002A*%
X100675000Y-59530000D03*
%TD*%
%TO.C,REF\u002A\u002A*%
X103125000Y-80870000D03*
%TD*%
%TO.C,REF\u002A\u002A*%
X103125000Y-64120000D03*
%TD*%
%TO.C,REF\u002A\u002A*%
X103125000Y-77810000D03*
%TD*%
%TO.C,REF\u002A\u002A*%
X103125000Y-61060000D03*
%TD*%
%TO.C,REF\u002A\u002A*%
X100675000Y-80870000D03*
%TD*%
%TO.C,REF\u002A\u002A*%
X100675000Y-64120000D03*
%TD*%
%TO.C,REF\u002A\u002A*%
X103125000Y-80105000D03*
%TD*%
%TO.C,REF\u002A\u002A*%
X103125000Y-63355000D03*
%TD*%
%TO.C,REF\u002A\u002A*%
X100675000Y-79340000D03*
%TD*%
%TO.C,REF\u002A\u002A*%
X100675000Y-62590000D03*
%TD*%
%TO.C,REF\u002A\u002A*%
X100675000Y-77810000D03*
%TD*%
%TO.C,REF\u002A\u002A*%
X100675000Y-61060000D03*
%TD*%
%TO.C,REF\u002A\u002A*%
X103125000Y-79340000D03*
%TD*%
%TO.C,REF\u002A\u002A*%
X103125000Y-62590000D03*
%TD*%
%TO.C,REF\u002A\u002A*%
X64614000Y-70060000D03*
%TD*%
%TO.C,REF\u002A\u002A*%
X63848000Y-70060000D03*
%TD*%
%TO.C,REF\u002A\u002A*%
X65380000Y-70060000D03*
%TD*%
%TO.C,REF\u002A\u002A*%
X62316000Y-70060000D03*
%TD*%
%TO.C,REF\u002A\u002A*%
X63082000Y-70060000D03*
%TD*%
%TO.C,REF\u002A\u002A*%
X61550000Y-70060000D03*
%TD*%
%TO.C,REF\u002A\u002A*%
X64624000Y-53420000D03*
%TD*%
%TO.C,REF\u002A\u002A*%
X63858000Y-53420000D03*
%TD*%
%TO.C,REF\u002A\u002A*%
X65390000Y-53420000D03*
%TD*%
%TO.C,REF\u002A\u002A*%
X62326000Y-53420000D03*
%TD*%
%TO.C,REF\u002A\u002A*%
X63092000Y-53420000D03*
%TD*%
%TO.C,REF\u002A\u002A*%
X61560000Y-53420000D03*
%TD*%
%TO.C,REF\u002A\u002A*%
X141484000Y-70060000D03*
%TD*%
%TO.C,REF\u002A\u002A*%
X140718000Y-70060000D03*
%TD*%
%TO.C,REF\u002A\u002A*%
X142250000Y-70060000D03*
%TD*%
%TO.C,REF\u002A\u002A*%
X139186000Y-70060000D03*
%TD*%
%TO.C,REF\u002A\u002A*%
X139952000Y-70060000D03*
%TD*%
%TO.C,REF\u002A\u002A*%
X138420000Y-70060000D03*
%TD*%
%TO.C,REF\u002A\u002A*%
X141514000Y-53420000D03*
%TD*%
%TO.C,REF\u002A\u002A*%
X140748000Y-53420000D03*
%TD*%
%TO.C,REF\u002A\u002A*%
X142280000Y-53420000D03*
%TD*%
%TO.C,REF\u002A\u002A*%
X139216000Y-53420000D03*
%TD*%
%TO.C,REF\u002A\u002A*%
X139982000Y-53420000D03*
%TD*%
%TO.C,REF\u002A\u002A*%
X138450000Y-53420000D03*
%TD*%
%TO.C,REF\u002A\u002A*%
X135175000Y-47370000D03*
%TD*%
%TO.C,REF\u002A\u002A*%
X135175000Y-44310000D03*
%TD*%
%TO.C,REF\u002A\u002A*%
X135175000Y-45840000D03*
%TD*%
%TO.C,REF\u002A\u002A*%
X135175000Y-42780000D03*
%TD*%
%TO.C,REF\u002A\u002A*%
X135175000Y-46605000D03*
%TD*%
%TO.C,REF\u002A\u002A*%
X135175000Y-45075000D03*
%TD*%
%TO.C,REF\u002A\u002A*%
X135175000Y-43545000D03*
%TD*%
%TO.C,REF\u002A\u002A*%
X103125000Y-46605000D03*
%TD*%
%TO.C,REF\u002A\u002A*%
X103125000Y-45075000D03*
%TD*%
%TO.C,REF\u002A\u002A*%
X103125000Y-43545000D03*
%TD*%
%TO.C,REF\u002A\u002A*%
X103125000Y-44310000D03*
%TD*%
%TO.C,REF\u002A\u002A*%
X103125000Y-42780000D03*
%TD*%
%TO.C,REF\u002A\u002A*%
X103125000Y-47370000D03*
%TD*%
%TO.C,REF\u002A\u002A*%
X103125000Y-45840000D03*
%TD*%
%TO.C,REF\u002A\u002A*%
X100675000Y-47370000D03*
%TD*%
%TO.C,REF\u002A\u002A*%
X100675000Y-44310000D03*
%TD*%
%TO.C,REF\u002A\u002A*%
X100675000Y-45840000D03*
%TD*%
%TO.C,REF\u002A\u002A*%
X100675000Y-42780000D03*
%TD*%
%TO.C,REF\u002A\u002A*%
X100675000Y-46605000D03*
%TD*%
%TO.C,REF\u002A\u002A*%
X100675000Y-45075000D03*
%TD*%
%TO.C,REF\u002A\u002A*%
X100675000Y-43545000D03*
%TD*%
%TO.C,REF\u002A\u002A*%
X68625000Y-47370000D03*
%TD*%
%TO.C,REF\u002A\u002A*%
X68625000Y-42780000D03*
%TD*%
%TO.C,REF\u002A\u002A*%
X68625000Y-46605000D03*
%TD*%
%TO.C,REF\u002A\u002A*%
X68625000Y-45075000D03*
%TD*%
%TO.C,REF\u002A\u002A*%
X68625000Y-45840000D03*
%TD*%
%TO.C,REF\u002A\u002A*%
X68625000Y-44310000D03*
%TD*%
%TO.C,REF\u002A\u002A*%
X68625000Y-43545000D03*
%TD*%
D37*
%TO.C,REF\u002A\u002A*%
X138884263Y-34150000D03*
%TD*%
%TO.C,REF\u002A\u002A*%
X64905737Y-89710000D03*
%TD*%
D23*
%TO.C,REF\u002A\u002A*%
X68710000Y-89220000D03*
%TD*%
%TO.C,REF\u002A\u002A*%
X68710000Y-89986000D03*
%TD*%
%TO.C,REF\u002A\u002A*%
X68710000Y-93050000D03*
%TD*%
%TO.C,REF\u002A\u002A*%
X68710000Y-92284000D03*
%TD*%
%TO.C,REF\u002A\u002A*%
X68710000Y-90752000D03*
%TD*%
%TO.C,REF\u002A\u002A*%
X68710000Y-91518000D03*
%TD*%
%TO.C,REF\u002A\u002A*%
X135080000Y-89280000D03*
%TD*%
%TO.C,REF\u002A\u002A*%
X135080000Y-90046000D03*
%TD*%
%TO.C,REF\u002A\u002A*%
X135080000Y-93110000D03*
%TD*%
%TO.C,REF\u002A\u002A*%
X135080000Y-92344000D03*
%TD*%
%TO.C,REF\u002A\u002A*%
X135080000Y-90812000D03*
%TD*%
%TO.C,REF\u002A\u002A*%
X135080000Y-91578000D03*
%TD*%
%TO.C,REF\u002A\u002A*%
X135080000Y-30820000D03*
%TD*%
%TO.C,REF\u002A\u002A*%
X135080000Y-31586000D03*
%TD*%
%TO.C,REF\u002A\u002A*%
X135080000Y-34650000D03*
%TD*%
%TO.C,REF\u002A\u002A*%
X135080000Y-33884000D03*
%TD*%
%TO.C,REF\u002A\u002A*%
X135080000Y-32352000D03*
%TD*%
%TO.C,REF\u002A\u002A*%
X135080000Y-33118000D03*
%TD*%
%TO.C,REF\u002A\u002A*%
X68700000Y-30810000D03*
%TD*%
%TO.C,REF\u002A\u002A*%
X68700000Y-31576000D03*
%TD*%
%TO.C,REF\u002A\u002A*%
X68700000Y-34640000D03*
%TD*%
%TO.C,REF\u002A\u002A*%
X68700000Y-33874000D03*
%TD*%
%TO.C,REF\u002A\u002A*%
X68700000Y-32342000D03*
%TD*%
%TO.C,REF\u002A\u002A*%
X68700000Y-33108000D03*
%TD*%
%TO.C,REF\u002A\u002A*%
X140718000Y-37960000D03*
%TD*%
%TO.C,REF\u002A\u002A*%
X141484000Y-37960000D03*
%TD*%
%TO.C,REF\u002A\u002A*%
X142250000Y-37960000D03*
%TD*%
%TO.C,REF\u002A\u002A*%
X138420000Y-37960000D03*
%TD*%
%TO.C,REF\u002A\u002A*%
X139186000Y-37960000D03*
%TD*%
%TO.C,REF\u002A\u002A*%
X139952000Y-37960000D03*
%TD*%
%TO.C,REF\u002A\u002A*%
X140738000Y-85930000D03*
%TD*%
%TO.C,REF\u002A\u002A*%
X141504000Y-85930000D03*
%TD*%
%TO.C,REF\u002A\u002A*%
X142270000Y-85930000D03*
%TD*%
%TO.C,REF\u002A\u002A*%
X138440000Y-85930000D03*
%TD*%
%TO.C,REF\u002A\u002A*%
X139206000Y-85930000D03*
%TD*%
%TO.C,REF\u002A\u002A*%
X139972000Y-85930000D03*
%TD*%
%TO.C,REF\u002A\u002A*%
X63828000Y-85920000D03*
%TD*%
%TO.C,REF\u002A\u002A*%
X64594000Y-85920000D03*
%TD*%
%TO.C,REF\u002A\u002A*%
X65360000Y-85920000D03*
%TD*%
%TO.C,REF\u002A\u002A*%
X61530000Y-85920000D03*
%TD*%
%TO.C,REF\u002A\u002A*%
X62296000Y-85920000D03*
%TD*%
%TO.C,REF\u002A\u002A*%
X63062000Y-85920000D03*
%TD*%
%TO.C,REF\u002A\u002A*%
X61560000Y-37960000D03*
%TD*%
%TO.C,REF\u002A\u002A*%
X62326000Y-37960000D03*
%TD*%
%TO.C,REF\u002A\u002A*%
X63092000Y-37960000D03*
%TD*%
%TO.C,REF\u002A\u002A*%
X63858000Y-37960000D03*
%TD*%
%TO.C,REF\u002A\u002A*%
X64624000Y-37960000D03*
%TD*%
%TO.C,REF\u002A\u002A*%
X65390000Y-37960000D03*
%TD*%
D27*
%TO.C,SW1*%
X95335000Y-47755000D03*
X99185000Y-47755000D03*
D26*
X99285000Y-49230000D03*
X95235000Y-49230000D03*
D25*
X97260000Y-46830000D03*
%TD*%
D10*
%TO.C,R14*%
X89280000Y-44847000D03*
X89280000Y-43933000D03*
%TD*%
D24*
%TO.C,U4*%
X69692000Y-51030000D03*
X70792000Y-51030000D03*
X71892000Y-51030000D03*
X72992000Y-51030000D03*
X74092000Y-51030000D03*
X75192000Y-51030000D03*
X76292000Y-51030000D03*
X77392000Y-51030000D03*
X77392000Y-43390000D03*
X76292000Y-43390000D03*
X75192000Y-43390000D03*
X74092000Y-43390000D03*
X72992000Y-43390000D03*
X71892000Y-43390000D03*
X70792000Y-43390000D03*
X69692000Y-43390000D03*
D23*
X77491000Y-47760000D03*
X77491000Y-46560000D03*
X73891000Y-48960000D03*
X73891000Y-47760000D03*
X73891000Y-46560000D03*
X73891000Y-45360000D03*
%TD*%
D32*
%TO.C,D2*%
X93000000Y-50350000D03*
X93000000Y-51350000D03*
%TD*%
%TO.C,D3*%
X90880000Y-50350000D03*
X90880000Y-51350000D03*
%TD*%
D15*
%TO.C,U3*%
X78760000Y-40850000D03*
X79260000Y-40850000D03*
X79760000Y-40850000D03*
X80260000Y-40850000D03*
X80760000Y-40850000D03*
X81260000Y-40850000D03*
X81260000Y-42550000D03*
X80760000Y-42550000D03*
X80260000Y-42550000D03*
X79760000Y-42550000D03*
X79260000Y-42550000D03*
X78760000Y-42550000D03*
%TD*%
D22*
%TO.C,CR1*%
X86820000Y-43839300D03*
X86820000Y-44880700D03*
%TD*%
D19*
%TO.C,J1*%
X79020000Y-50490000D03*
X87660000Y-46690000D03*
X79020000Y-46690000D03*
X87660000Y-50490000D03*
D18*
X86090000Y-46690000D03*
X80590000Y-46690000D03*
D17*
X84860000Y-46690000D03*
X81820000Y-46690000D03*
D16*
X82840000Y-46690000D03*
X83840000Y-46690000D03*
%TD*%
D21*
%TO.C,J3*%
X98850000Y-39830000D03*
D20*
X98850000Y-40830000D03*
X98850000Y-41830000D03*
X98850000Y-42830000D03*
X98850000Y-43830000D03*
%TD*%
D13*
%TO.C,U6*%
X87785000Y-41670000D03*
X88735000Y-41670000D03*
D14*
X88260000Y-40760000D03*
X88910000Y-40760000D03*
X87610000Y-40760000D03*
X87610000Y-42580000D03*
X88260000Y-42580000D03*
X88910000Y-42580000D03*
%TD*%
D36*
%TO.C,U1*%
X83490000Y-42240000D03*
X83090000Y-42240000D03*
X82690000Y-42240000D03*
X82690000Y-41140000D03*
X83090000Y-41140000D03*
X83490000Y-41140000D03*
%TD*%
D35*
%TO.C,J2*%
X95610000Y-44140000D03*
X95610000Y-38640000D03*
D34*
X93110000Y-43140000D03*
X93110000Y-42640000D03*
X93110000Y-42140000D03*
X93110000Y-41640000D03*
X93110000Y-41140000D03*
X93110000Y-40640000D03*
X93110000Y-40140000D03*
X93110000Y-39640000D03*
%TD*%
D33*
%TO.C,D1*%
X85410000Y-45085000D03*
X85410000Y-43635000D03*
%TD*%
D10*
%TO.C,R13*%
X89030000Y-38643000D03*
X89030000Y-39557000D03*
%TD*%
D31*
%TO.C,REF\u002A\u002A*%
X69720000Y-39050000D03*
%TD*%
D30*
%TO.C,Y1*%
X75880000Y-40270000D03*
X73380000Y-40270000D03*
%TD*%
D29*
%TO.C,U2*%
X91190000Y-46220000D03*
X90240000Y-46220000D03*
X89290000Y-46220000D03*
X89290000Y-49220000D03*
X90240000Y-49220000D03*
X91190000Y-49220000D03*
D28*
X90240000Y-47720000D03*
%TD*%
D10*
%TO.C,R3*%
X82290000Y-38643000D03*
X82290000Y-39557000D03*
%TD*%
%TO.C,R10*%
X80090000Y-39557000D03*
X80090000Y-38643000D03*
%TD*%
D11*
%TO.C,C1*%
X84270000Y-43940000D03*
X84270000Y-44920000D03*
%TD*%
%TO.C,C3*%
X92600000Y-48580000D03*
X92600000Y-47600000D03*
%TD*%
D10*
%TO.C,R11*%
X86830000Y-39557000D03*
X86830000Y-38643000D03*
%TD*%
%TO.C,R18*%
X95900000Y-45163000D03*
X95900000Y-46077000D03*
%TD*%
%TO.C,R17*%
X94800000Y-46077000D03*
X94800000Y-45163000D03*
%TD*%
%TO.C,R9*%
X78990000Y-38643000D03*
X78990000Y-39557000D03*
%TD*%
%TO.C,R5*%
X91940000Y-50443000D03*
X91940000Y-51357000D03*
%TD*%
%TO.C,R2*%
X83180000Y-44847000D03*
X83180000Y-43933000D03*
%TD*%
%TO.C,R1*%
X82080000Y-44847000D03*
X82080000Y-43933000D03*
%TD*%
D12*
%TO.C,C10*%
X70670000Y-42010000D03*
X69690000Y-42010000D03*
%TD*%
%TO.C,C9*%
X73120000Y-42010000D03*
X74100000Y-42010000D03*
%TD*%
%TO.C,C8*%
X76140000Y-42010000D03*
X75160000Y-42010000D03*
%TD*%
D11*
%TO.C,C7*%
X80980000Y-43940000D03*
X80980000Y-44920000D03*
%TD*%
%TO.C,C6*%
X79900000Y-43940000D03*
X79900000Y-44920000D03*
%TD*%
%TO.C,C5*%
X78820000Y-43940000D03*
X78820000Y-44920000D03*
%TD*%
%TO.C,C2*%
X84480000Y-39630000D03*
X84480000Y-38650000D03*
%TD*%
D10*
%TO.C,R8*%
X89830000Y-50443000D03*
X89830000Y-51357000D03*
%TD*%
%TO.C,R4*%
X83390000Y-38643000D03*
X83390000Y-39557000D03*
%TD*%
%TO.C,R15*%
X88180000Y-43933000D03*
X88180000Y-44847000D03*
%TD*%
%TO.C,R21*%
X77890000Y-39557000D03*
X77890000Y-38643000D03*
%TD*%
%TO.C,R6*%
X91480000Y-43933000D03*
X91480000Y-44847000D03*
%TD*%
D11*
%TO.C,C4*%
X93703333Y-46150000D03*
X93703333Y-45170000D03*
%TD*%
D10*
%TO.C,R19*%
X93703333Y-48507000D03*
X93703333Y-47593000D03*
%TD*%
%TO.C,R12*%
X90380000Y-43933000D03*
X90380000Y-44847000D03*
%TD*%
%TO.C,R16*%
X87930000Y-39557000D03*
X87930000Y-38643000D03*
%TD*%
%TO.C,R7*%
X92600000Y-46077000D03*
X92600000Y-45163000D03*
%TD*%
%TO.C,R20*%
X81190000Y-38643000D03*
X81190000Y-39557000D03*
%TD*%
%TO.C,R22*%
X90130000Y-39557000D03*
X90130000Y-38643000D03*
%TD*%
D14*
%TO.C,U5*%
X86370000Y-42580000D03*
X85720000Y-42580000D03*
X85070000Y-42580000D03*
X85070000Y-40760000D03*
X86370000Y-40760000D03*
X85720000Y-40760000D03*
D13*
X86195000Y-41670000D03*
X85245000Y-41670000D03*
%TD*%
D10*
%TO.C,R23*%
X91230000Y-39557000D03*
X91230000Y-38643000D03*
%TD*%
D14*
%TO.C,U7*%
X91410000Y-42580000D03*
X90760000Y-42580000D03*
X90110000Y-42580000D03*
X90110000Y-40760000D03*
X91410000Y-40760000D03*
X90760000Y-40760000D03*
D13*
X91235000Y-41670000D03*
X90285000Y-41670000D03*
%TD*%
D10*
%TO.C,R24*%
X85730000Y-39557000D03*
X85730000Y-38643000D03*
%TD*%
M02*
