M48
; DRILL file {KiCad (5.1.9)-1} date 11/10/21 23:35:09
; FORMAT={-:-/ absolute / metric / decimal}
; #@! TF.CreationDate,2021-11-10T23:35:09-06:00
; #@! TF.GenerationSoftware,Kicad,Pcbnew,(5.1.9)-1
; #@! TF.FileFunction,Plated,1,4,PTH
FMAT,2
METRIC
T1C0.200
T2C0.400
T3C0.500
T4C0.700
%
G90
G05
T1
X69.26Y-41.24
X69.26Y-57.99
X69.26Y-74.74
X70.22Y-41.24
X70.22Y-57.99
X70.22Y-74.74
X70.67Y-38.57
X70.67Y-55.32
X70.67Y-72.07
X71.74Y-38.95
X71.74Y-41.24
X71.74Y-42.03
X71.74Y-55.7
X71.74Y-57.99
X71.74Y-58.78
X71.74Y-72.45
X71.74Y-74.74
X71.74Y-75.53
X72.46Y-38.95
X72.46Y-41.53
X72.46Y-55.7
X72.46Y-58.28
X72.46Y-72.45
X72.46Y-75.03
X73.04Y-45.71
X73.04Y-62.46
X73.04Y-79.21
X73.05Y-49.0
X73.05Y-65.75
X73.05Y-82.5
X73.06Y-47.22
X73.06Y-63.97
X73.06Y-80.72
X73.53Y-44.39
X73.53Y-61.14
X73.53Y-77.89
X74.41Y-46.04
X74.41Y-62.79
X74.41Y-79.54
X74.45Y-45.36
X74.45Y-62.11
X74.45Y-78.86
X74.53Y-47.94
X74.53Y-64.69
X74.53Y-81.44
X74.58Y-47.26
X74.58Y-64.01
X74.58Y-80.76
X74.63Y-38.95
X74.63Y-55.7
X74.63Y-72.45
X76.05Y-49.95
X76.05Y-66.7
X76.05Y-83.45
X76.07Y-47.17
X76.07Y-63.92
X76.07Y-80.67
X76.14Y-48.99
X76.14Y-65.74
X76.14Y-82.49
X76.53Y-46.78
X76.53Y-63.53
X76.53Y-80.28
X76.78Y-38.95
X76.78Y-41.53
X76.78Y-55.7
X76.78Y-58.28
X76.78Y-72.45
X76.78Y-75.03
X76.981Y-49.991
X76.981Y-66.741
X76.981Y-83.491
X77.19Y-45.71
X77.19Y-62.46
X77.19Y-79.21
X77.68Y-45.24
X77.68Y-61.99
X77.68Y-78.74
X77.95Y-40.18
X77.95Y-56.93
X77.95Y-73.68
X78.318Y-41.238
X78.318Y-57.988
X78.318Y-74.738
X79.273Y-43.875
X79.273Y-60.625
X79.273Y-77.375
X79.36Y-44.8
X79.36Y-61.55
X79.36Y-78.3
X79.71Y-39.23
X79.71Y-55.98
X79.71Y-72.73
X80.26Y-40.2
X80.26Y-56.95
X80.26Y-73.7
X80.26Y-43.265
X80.26Y-60.015
X80.26Y-76.765
X80.6Y-45.89
X80.6Y-62.64
X80.6Y-79.39
X81.38Y-51.35
X81.38Y-68.1
X81.38Y-84.85
X81.78Y-42.58
X81.78Y-59.33
X81.78Y-76.08
X81.878Y-43.13
X81.878Y-59.88
X81.878Y-76.63
X82.21Y-40.2
X82.21Y-49.39
X82.21Y-56.95
X82.21Y-66.14
X82.21Y-73.7
X82.21Y-82.89
X82.742Y-38.997
X82.742Y-55.747
X82.742Y-72.497
X82.88Y-43.338
X82.88Y-60.088
X82.88Y-76.838
X83.4Y-40.18
X83.4Y-56.93
X83.4Y-73.68
X83.45Y-49.0
X83.45Y-65.75
X83.45Y-82.5
X83.61Y-43.37
X83.61Y-60.12
X83.61Y-76.87
X83.93Y-38.63
X83.93Y-55.38
X83.93Y-72.13
X84.36Y-40.235
X84.36Y-56.985
X84.36Y-73.735
X84.88Y-44.48
X84.88Y-61.23
X84.88Y-77.98
X84.92Y-43.67
X84.92Y-60.42
X84.92Y-77.17
X85.09Y-39.05
X85.09Y-55.8
X85.09Y-72.55
X85.52Y-51.35
X85.52Y-68.1
X85.52Y-84.85
X85.63Y-48.07
X85.63Y-64.82
X85.63Y-81.57
X86.59Y-45.63
X86.59Y-62.38
X86.59Y-79.13
X86.98Y-43.39
X86.98Y-60.14
X86.98Y-76.89
X87.04Y-48.49
X87.04Y-65.24
X87.04Y-81.99
X87.36Y-38.55
X87.36Y-55.3
X87.36Y-72.05
X87.86Y-47.97
X87.86Y-64.72
X87.86Y-81.47
X88.25Y-40.76
X88.25Y-57.51
X88.25Y-74.26
X88.813Y-45.606
X88.813Y-62.356
X88.813Y-79.106
X88.9Y-40.76
X88.9Y-57.51
X88.9Y-74.26
X89.03Y-38.67
X89.03Y-55.42
X89.03Y-72.17
X89.13Y-50.67
X89.13Y-67.42
X89.13Y-84.17
X89.35Y-47.21
X89.35Y-48.23
X89.35Y-63.96
X89.35Y-64.98
X89.35Y-80.71
X89.35Y-81.73
X89.69Y-46.29
X89.69Y-63.04
X89.69Y-79.79
X89.69Y-40.235
X89.69Y-56.985
X89.69Y-73.735
X90.11Y-40.76
X90.11Y-57.51
X90.11Y-74.26
X90.12Y-38.55
X90.12Y-55.3
X90.12Y-72.05
X90.26Y-51.15
X90.26Y-67.9
X90.26Y-84.65
X90.42Y-43.17
X90.42Y-59.92
X90.42Y-76.67
X90.62Y-45.88
X90.62Y-62.63
X90.62Y-79.38
X90.71Y-49.85
X90.71Y-66.6
X90.71Y-83.35
X90.76Y-42.58
X90.76Y-59.33
X90.76Y-76.08
X91.15Y-47.21
X91.15Y-48.23
X91.15Y-63.96
X91.15Y-64.98
X91.15Y-80.71
X91.15Y-81.73
X91.41Y-42.58
X91.41Y-59.33
X91.41Y-76.08
X91.47Y-45.15
X91.47Y-61.9
X91.47Y-78.65
X91.66Y-49.0
X91.66Y-65.75
X91.66Y-82.5
X91.75Y-40.22
X91.75Y-56.97
X91.75Y-73.72
X91.76Y-39.65
X91.76Y-56.4
X91.76Y-73.15
X91.99Y-49.94
X91.99Y-66.69
X91.99Y-83.44
X92.26Y-39.05
X92.26Y-55.8
X92.26Y-72.55
X92.28Y-43.17
X92.28Y-59.92
X92.28Y-76.67
X92.59Y-46.91
X92.59Y-63.66
X92.59Y-80.41
X92.69Y-50.68
X92.69Y-67.43
X92.69Y-84.18
X93.3Y-38.6
X93.3Y-55.35
X93.3Y-72.1
X93.703Y-43.483
X93.703Y-60.233
X93.703Y-76.983
X94.04Y-40.64
X94.04Y-57.39
X94.04Y-74.14
X94.256Y-44.355
X94.256Y-61.105
X94.256Y-77.855
X94.4Y-39.37
X94.4Y-56.12
X94.4Y-72.87
X94.81Y-43.93
X94.81Y-60.68
X94.81Y-77.43
X94.97Y-40.47
X94.97Y-57.22
X94.97Y-73.97
X95.16Y-40.99
X95.16Y-57.74
X95.16Y-74.49
X95.24Y-47.05
X95.24Y-63.8
X95.24Y-80.55
X95.48Y-51.35
X95.48Y-68.1
X95.48Y-84.85
X96.32Y-47.5
X96.32Y-64.25
X96.32Y-81.0
X96.95Y-39.83
X96.95Y-44.19
X96.95Y-45.717
X96.95Y-56.58
X96.95Y-60.94
X96.95Y-62.467
X96.95Y-73.33
X96.95Y-77.69
X96.95Y-79.217
X97.65Y-38.6
X97.65Y-44.975
X97.65Y-51.35
X97.65Y-55.35
X97.65Y-61.725
X97.65Y-68.1
X97.65Y-72.1
X97.65Y-78.475
X97.65Y-84.85
X99.87Y-38.6
X99.87Y-44.975
X99.87Y-51.35
X99.87Y-55.35
X99.87Y-61.725
X99.87Y-68.1
X99.87Y-72.1
X99.87Y-78.475
X99.87Y-84.85
X103.76Y-41.24
X103.76Y-57.99
X103.76Y-74.74
X104.72Y-41.24
X104.72Y-57.99
X104.72Y-74.74
X105.17Y-38.57
X105.17Y-55.32
X105.17Y-72.07
X106.24Y-38.95
X106.24Y-41.24
X106.24Y-42.03
X106.24Y-55.7
X106.24Y-57.99
X106.24Y-58.78
X106.24Y-72.45
X106.24Y-74.74
X106.24Y-75.53
X106.96Y-38.95
X106.96Y-41.53
X106.96Y-55.7
X106.96Y-58.28
X106.96Y-72.45
X106.96Y-75.03
X107.54Y-45.71
X107.54Y-62.46
X107.54Y-79.21
X107.55Y-49.0
X107.55Y-65.75
X107.55Y-82.5
X107.56Y-47.22
X107.56Y-63.97
X107.56Y-80.72
X108.03Y-44.39
X108.03Y-61.14
X108.03Y-77.89
X108.91Y-46.04
X108.91Y-62.79
X108.91Y-79.54
X108.95Y-45.36
X108.95Y-62.11
X108.95Y-78.86
X109.03Y-47.94
X109.03Y-64.69
X109.03Y-81.44
X109.08Y-47.26
X109.08Y-64.01
X109.08Y-80.76
X109.13Y-38.95
X109.13Y-55.7
X109.13Y-72.45
X110.55Y-49.95
X110.55Y-66.7
X110.55Y-83.45
X110.57Y-47.17
X110.57Y-63.92
X110.57Y-80.67
X110.64Y-48.99
X110.64Y-65.74
X110.64Y-82.49
X111.03Y-46.78
X111.03Y-63.53
X111.03Y-80.28
X111.28Y-38.95
X111.28Y-41.53
X111.28Y-55.7
X111.28Y-58.28
X111.28Y-72.45
X111.28Y-75.03
X111.481Y-49.991
X111.481Y-66.741
X111.481Y-83.491
X111.69Y-45.71
X111.69Y-62.46
X111.69Y-79.21
X112.18Y-45.24
X112.18Y-61.99
X112.18Y-78.74
X112.45Y-40.18
X112.45Y-56.93
X112.45Y-73.68
X112.818Y-41.238
X112.818Y-57.988
X112.818Y-74.738
X113.773Y-43.875
X113.773Y-60.625
X113.773Y-77.375
X113.86Y-44.8
X113.86Y-61.55
X113.86Y-78.3
X114.21Y-39.23
X114.21Y-55.98
X114.21Y-72.73
X114.76Y-40.2
X114.76Y-56.95
X114.76Y-73.7
X114.76Y-43.265
X114.76Y-60.015
X114.76Y-76.765
X115.1Y-45.89
X115.1Y-62.64
X115.1Y-79.39
X115.88Y-51.35
X115.88Y-68.1
X115.88Y-84.85
X116.28Y-42.58
X116.28Y-59.33
X116.28Y-76.08
X116.378Y-43.13
X116.378Y-59.88
X116.378Y-76.63
X116.71Y-40.2
X116.71Y-49.39
X116.71Y-56.95
X116.71Y-66.14
X116.71Y-73.7
X116.71Y-82.89
X117.242Y-38.997
X117.242Y-55.747
X117.242Y-72.497
X117.38Y-43.338
X117.38Y-60.088
X117.38Y-76.838
X117.9Y-40.18
X117.9Y-56.93
X117.9Y-73.68
X117.95Y-49.0
X117.95Y-65.75
X117.95Y-82.5
X118.11Y-43.37
X118.11Y-60.12
X118.11Y-76.87
X118.43Y-38.63
X118.43Y-55.38
X118.43Y-72.13
X118.86Y-40.235
X118.86Y-56.985
X118.86Y-73.735
X119.38Y-44.48
X119.38Y-61.23
X119.38Y-77.98
X119.42Y-43.67
X119.42Y-60.42
X119.42Y-77.17
X119.59Y-39.05
X119.59Y-55.8
X119.59Y-72.55
X120.02Y-51.35
X120.02Y-68.1
X120.02Y-84.85
X120.13Y-48.07
X120.13Y-64.82
X120.13Y-81.57
X121.09Y-45.63
X121.09Y-62.38
X121.09Y-79.13
X121.48Y-43.39
X121.48Y-60.14
X121.48Y-76.89
X121.54Y-48.49
X121.54Y-65.24
X121.54Y-81.99
X121.86Y-38.55
X121.86Y-55.3
X121.86Y-72.05
X122.36Y-47.97
X122.36Y-64.72
X122.36Y-81.47
X122.75Y-40.76
X122.75Y-57.51
X122.75Y-74.26
X123.313Y-45.606
X123.313Y-62.356
X123.313Y-79.106
X123.4Y-40.76
X123.4Y-57.51
X123.4Y-74.26
X123.53Y-38.67
X123.53Y-55.42
X123.53Y-72.17
X123.63Y-50.67
X123.63Y-67.42
X123.63Y-84.17
X123.85Y-47.21
X123.85Y-48.23
X123.85Y-63.96
X123.85Y-64.98
X123.85Y-80.71
X123.85Y-81.73
X124.19Y-46.29
X124.19Y-63.04
X124.19Y-79.79
X124.19Y-40.235
X124.19Y-56.985
X124.19Y-73.735
X124.61Y-40.76
X124.61Y-57.51
X124.61Y-74.26
X124.62Y-38.55
X124.62Y-55.3
X124.62Y-72.05
X124.76Y-51.15
X124.76Y-67.9
X124.76Y-84.65
X124.92Y-43.17
X124.92Y-59.92
X124.92Y-76.67
X125.12Y-45.88
X125.12Y-62.63
X125.12Y-79.38
X125.21Y-49.85
X125.21Y-66.6
X125.21Y-83.35
X125.26Y-42.58
X125.26Y-59.33
X125.26Y-76.08
X125.65Y-47.21
X125.65Y-48.23
X125.65Y-63.96
X125.65Y-64.98
X125.65Y-80.71
X125.65Y-81.73
X125.91Y-42.58
X125.91Y-59.33
X125.91Y-76.08
X125.97Y-45.15
X125.97Y-61.9
X125.97Y-78.65
X126.16Y-49.0
X126.16Y-65.75
X126.16Y-82.5
X126.25Y-40.22
X126.25Y-56.97
X126.25Y-73.72
X126.26Y-39.65
X126.26Y-56.4
X126.26Y-73.15
X126.49Y-49.94
X126.49Y-66.69
X126.49Y-83.44
X126.76Y-39.05
X126.76Y-55.8
X126.76Y-72.55
X126.78Y-43.17
X126.78Y-59.92
X126.78Y-76.67
X127.09Y-46.91
X127.09Y-63.66
X127.09Y-80.41
X127.19Y-50.68
X127.19Y-67.43
X127.19Y-84.18
X127.8Y-38.6
X127.8Y-55.35
X127.8Y-72.1
X128.203Y-43.483
X128.203Y-60.233
X128.203Y-76.983
X128.54Y-40.64
X128.54Y-57.39
X128.54Y-74.14
X128.756Y-44.355
X128.756Y-61.105
X128.756Y-77.855
X128.9Y-39.37
X128.9Y-56.12
X128.9Y-72.87
X129.31Y-43.93
X129.31Y-60.68
X129.31Y-77.43
X129.47Y-40.47
X129.47Y-57.22
X129.47Y-73.97
X129.66Y-40.99
X129.66Y-57.74
X129.66Y-74.49
X129.74Y-47.05
X129.74Y-63.8
X129.74Y-80.55
X129.98Y-51.35
X129.98Y-68.1
X129.98Y-84.85
X130.82Y-47.5
X130.82Y-64.25
X130.82Y-81.0
X131.45Y-39.83
X131.45Y-44.19
X131.45Y-45.717
X131.45Y-56.58
X131.45Y-60.94
X131.45Y-62.467
X131.45Y-73.33
X131.45Y-77.69
X131.45Y-79.217
X132.15Y-38.6
X132.15Y-44.975
X132.15Y-51.35
X132.15Y-55.35
X132.15Y-61.725
X132.15Y-68.1
X132.15Y-72.1
X132.15Y-78.475
X132.15Y-84.85
X134.37Y-38.6
X134.37Y-44.975
X134.37Y-51.35
X134.37Y-55.35
X134.37Y-61.725
X134.37Y-68.1
X134.37Y-72.1
X134.37Y-78.475
X134.37Y-84.85
T3
X98.85Y-39.83
X98.85Y-40.83
X98.85Y-41.83
X98.85Y-42.83
X98.85Y-43.83
X98.85Y-56.58
X98.85Y-57.58
X98.85Y-58.58
X98.85Y-59.58
X98.85Y-60.58
X98.85Y-73.33
X98.85Y-74.33
X98.85Y-75.33
X98.85Y-76.33
X98.85Y-77.33
X133.35Y-39.83
X133.35Y-40.83
X133.35Y-41.83
X133.35Y-42.83
X133.35Y-43.83
X133.35Y-56.58
X133.35Y-57.58
X133.35Y-58.58
X133.35Y-59.58
X133.35Y-60.58
X133.35Y-73.33
X133.35Y-74.33
X133.35Y-75.33
X133.35Y-76.33
X133.35Y-77.33
T4
X69.72Y-39.05
X69.72Y-55.8
X69.72Y-72.55
X104.22Y-39.05
X104.22Y-55.8
X104.22Y-72.55
T2
G00X95.235Y-49.105
M15
G01X95.235Y-49.355
M16
G05
G00X95.235Y-65.855
M15
G01X95.235Y-66.105
M16
G05
G00X95.235Y-82.605
M15
G01X95.235Y-82.855
M16
G05
G00X99.285Y-49.105
M15
G01X99.285Y-49.355
M16
G05
G00X99.285Y-65.855
M15
G01X99.285Y-66.105
M16
G05
G00X99.285Y-82.605
M15
G01X99.285Y-82.855
M16
G05
G00X129.735Y-49.105
M15
G01X129.735Y-49.355
M16
G05
G00X129.735Y-65.855
M15
G01X129.735Y-66.105
M16
G05
G00X129.735Y-82.605
M15
G01X129.735Y-82.855
M16
G05
G00X133.785Y-49.105
M15
G01X133.785Y-49.355
M16
G05
G00X133.785Y-65.855
M15
G01X133.785Y-66.105
M16
G05
G00X133.785Y-82.605
M15
G01X133.785Y-82.855
M16
G05
T3
G00X79.02Y-46.34
M15
G01X79.02Y-47.04
M16
G05
G00X79.02Y-50.14
M15
G01X79.02Y-50.84
M16
G05
G00X79.02Y-63.09
M15
G01X79.02Y-63.79
M16
G05
G00X79.02Y-66.89
M15
G01X79.02Y-67.59
M16
G05
G00X79.02Y-79.84
M15
G01X79.02Y-80.54
M16
G05
G00X79.02Y-83.64
M15
G01X79.02Y-84.34
M16
G05
G00X87.66Y-46.34
M15
G01X87.66Y-47.04
M16
G05
G00X87.66Y-50.14
M15
G01X87.66Y-50.84
M16
G05
G00X87.66Y-63.09
M15
G01X87.66Y-63.79
M16
G05
G00X87.66Y-66.89
M15
G01X87.66Y-67.59
M16
G05
G00X87.66Y-79.84
M15
G01X87.66Y-80.54
M16
G05
G00X87.66Y-83.64
M15
G01X87.66Y-84.34
M16
G05
G00X113.52Y-46.34
M15
G01X113.52Y-47.04
M16
G05
G00X113.52Y-50.14
M15
G01X113.52Y-50.84
M16
G05
G00X113.52Y-63.09
M15
G01X113.52Y-63.79
M16
G05
G00X113.52Y-66.89
M15
G01X113.52Y-67.59
M16
G05
G00X113.52Y-79.84
M15
G01X113.52Y-80.54
M16
G05
G00X113.52Y-83.64
M15
G01X113.52Y-84.34
M16
G05
G00X122.16Y-46.34
M15
G01X122.16Y-47.04
M16
G05
G00X122.16Y-50.14
M15
G01X122.16Y-50.84
M16
G05
G00X122.16Y-63.09
M15
G01X122.16Y-63.79
M16
G05
G00X122.16Y-66.89
M15
G01X122.16Y-67.59
M16
G05
G00X122.16Y-79.84
M15
G01X122.16Y-80.54
M16
G05
G00X122.16Y-83.64
M15
G01X122.16Y-84.34
M16
G05
T0
M30
